<svg width="168" height="20" viewBox="0 0 168 20" fill="none" xmlns="http://www.w3.org/2000/svg">
<g clip-path="url(#clip0_9_1545)">
<path d="M10.0001 19.091C15.0209 19.091 19.091 15.0209 19.091 10.0001C19.091 4.97932 15.0209 0.90918 10.0001 0.90918C4.97932 0.90918 0.90918 4.97932 0.90918 10.0001C0.90918 15.0209 4.97932 19.091 10.0001 19.091Z" stroke="#8F90A7" stroke-width="2" stroke-linecap="round" stroke-linejoin="round"/>
<path d="M0.90918 10H19.091" stroke="#8F90A7" stroke-width="2" stroke-linecap="round" stroke-linejoin="round"/>
<path d="M10.0001 0.90918C12.274 3.39859 13.5663 6.62921 13.6365 10.0001C13.5663 13.371 12.274 16.6016 10.0001 19.091C7.72624 16.6016 6.43399 13.371 6.36377 10.0001C6.43399 6.62921 7.72624 3.39859 10.0001 0.90918V0.90918Z" stroke="#8F90A7" stroke-width="2" stroke-linecap="round" stroke-linejoin="round"/>
</g>
<circle cx="47" cy="10" r="3" fill="url(#paint0_linear_9_1545)"/>
<g clip-path="url(#clip1_9_1545)">
<path d="M89.34 3.46C89.1027 3.46 88.8707 3.53038 88.6733 3.66224C88.476 3.79409 88.3222 3.98151 88.2313 4.20078C88.1405 4.42005 88.1168 4.66133 88.1631 4.89411C88.2094 5.12689 88.3236 5.34071 88.4915 5.50853C88.6593 5.67635 88.8731 5.79064 89.1059 5.83694C89.3387 5.88324 89.5799 5.85948 89.7992 5.76866C90.0185 5.67783 90.2059 5.52402 90.3378 5.32668C90.4696 5.12935 90.54 4.89734 90.54 4.66C90.54 4.34174 90.4136 4.03652 90.1885 3.81147C89.9635 3.58643 89.6583 3.46 89.34 3.46ZM93.94 5.88C93.9206 5.0503 93.7652 4.2294 93.48 3.45C93.2257 2.78313 92.83 2.17928 92.32 1.68C91.8248 1.16743 91.2196 0.774176 90.55 0.53C89.7727 0.236161 88.9508 0.07721 88.12 0.0599999C87.06 -5.58794e-08 86.72 0 84 0C81.28 0 80.94 -5.58794e-08 79.88 0.0599999C79.0492 0.07721 78.2273 0.236161 77.45 0.53C76.7817 0.776649 76.1769 1.16956 75.68 1.68C75.1674 2.17518 74.7742 2.78044 74.53 3.45C74.2362 4.22734 74.0772 5.04915 74.06 5.88C74 6.94 74 7.28 74 10C74 12.72 74 13.06 74.06 14.12C74.0772 14.9508 74.2362 15.7727 74.53 16.55C74.7742 17.2196 75.1674 17.8248 75.68 18.32C76.1769 18.8304 76.7817 19.2234 77.45 19.47C78.2273 19.7638 79.0492 19.9228 79.88 19.94C80.94 20 81.28 20 84 20C86.72 20 87.06 20 88.12 19.94C88.9508 19.9228 89.7727 19.7638 90.55 19.47C91.2196 19.2258 91.8248 18.8326 92.32 18.32C92.8322 17.8226 93.2283 17.2182 93.48 16.55C93.7652 15.7706 93.9206 14.9497 93.94 14.12C93.94 13.06 94 12.72 94 10C94 7.28 94 6.94 93.94 5.88ZM92.14 14C92.1327 14.6348 92.0178 15.2637 91.8 15.86C91.6403 16.2952 91.3839 16.6884 91.05 17.01C90.7256 17.3405 90.3332 17.5964 89.9 17.76C89.3037 17.9778 88.6748 18.0927 88.04 18.1C87.04 18.15 86.67 18.16 84.04 18.16C81.41 18.16 81.04 18.16 80.04 18.1C79.3809 18.1123 78.7246 18.0109 78.1 17.8C77.6858 17.6281 77.3114 17.3728 77 17.05C76.6681 16.7287 76.4148 16.3352 76.26 15.9C76.0159 15.2952 75.8804 14.6519 75.86 14C75.86 13 75.8 12.63 75.8 10C75.8 7.37 75.8 7 75.86 6C75.8645 5.35106 75.983 4.70795 76.21 4.1C76.386 3.67791 76.6563 3.30166 77 3C77.3038 2.65617 77.6793 2.3831 78.1 2.2C78.7096 1.98004 79.352 1.86508 80 1.86C81 1.86 81.37 1.8 84 1.8C86.63 1.8 87 1.8 88 1.86C88.6348 1.86728 89.2637 1.98225 89.86 2.2C90.3144 2.36865 90.7223 2.64285 91.05 3C91.3777 3.30718 91.6338 3.68273 91.8 4.1C92.0223 4.70893 92.1373 5.35178 92.14 6C92.19 7 92.2 7.37 92.2 10C92.2 12.63 92.19 13 92.14 14ZM84 4.87C82.9858 4.87198 81.995 5.17453 81.1527 5.73942C80.3103 6.30431 79.6544 7.1062 79.2676 8.04375C78.8809 8.98131 78.7807 10.0125 78.9798 11.0069C79.1789 12.0014 79.6682 12.9145 80.3861 13.631C81.1039 14.3474 82.018 14.835 83.0129 15.0321C84.0077 15.2293 85.0387 15.1271 85.9755 14.7385C86.9123 14.35 87.7129 13.6924 88.2761 12.849C88.8394 12.0056 89.14 11.0142 89.14 10C89.1413 9.3251 89.0092 8.65661 88.7512 8.03296C88.4933 7.40931 88.1146 6.84281 87.6369 6.36605C87.1592 5.88929 86.5919 5.51168 85.9678 5.25493C85.3436 4.99818 84.6749 4.86736 84 4.87ZM84 13.33C83.3414 13.33 82.6976 13.1347 82.15 12.7688C81.6023 12.4029 81.1755 11.8828 80.9235 11.2743C80.6714 10.6659 80.6055 9.99631 80.734 9.35035C80.8625 8.70439 81.1796 8.11104 81.6453 7.64533C82.111 7.17963 82.7044 6.86247 83.3503 6.73398C83.9963 6.6055 84.6659 6.67144 85.2743 6.92348C85.8828 7.17552 86.4029 7.60234 86.7688 8.14995C87.1347 8.69757 87.33 9.34139 87.33 10C87.33 10.4373 87.2439 10.8703 87.0765 11.2743C86.9092 11.6784 86.6639 12.0454 86.3547 12.3547C86.0454 12.6639 85.6784 12.9092 85.2743 13.0765C84.8703 13.2439 84.4373 13.33 84 13.33Z" fill="#8F90A7"/>
</g>
<circle cx="121" cy="10" r="3" fill="url(#paint1_linear_9_1545)"/>
<path d="M163.077 0.90918H160.307C159.083 0.90918 157.909 1.38807 157.044 2.24051C156.178 3.09295 155.692 4.2491 155.692 5.45463V8.18191H152.923V11.8183H155.692V19.091H159.384V11.8183H162.154L163.077 8.18191H159.384V5.45463C159.384 5.21353 159.482 4.9823 159.655 4.81181C159.828 4.64132 160.063 4.54554 160.307 4.54554H163.077V0.90918Z" stroke="#8F90A7" stroke-width="1.5" stroke-linecap="round" stroke-linejoin="round"/>
<defs>
<linearGradient id="paint0_linear_9_1545" x1="50" y1="13" x2="43.9023" y2="12.899" gradientUnits="userSpaceOnUse">
<stop stop-color="#888BF4"/>
<stop offset="1" stop-color="#5151C6"/>
</linearGradient>
<linearGradient id="paint1_linear_9_1545" x1="124" y1="13" x2="117.902" y2="12.899" gradientUnits="userSpaceOnUse">
<stop stop-color="#888BF4"/>
<stop offset="1" stop-color="#5151C6"/>
</linearGradient>
<clipPath id="clip0_9_1545">
<rect width="20" height="20" fill="white"/>
</clipPath>
<clipPath id="clip1_9_1545">
<rect width="20" height="20" fill="white" transform="translate(74)"/>
</clipPath>
</defs>
</svg>
