<svg width="70" height="70" viewBox="0 0 70 70" fill="none" xmlns="http://www.w3.org/2000/svg">
<rect width="70" height="70" rx="7" fill="#C5CE38"/>
<path d="M19.7656 50.625C21.1654 50.625 22.3617 50.1286 23.3545 49.1357C24.3473 48.1429 24.8438 46.9466 24.8438 45.5469C24.8438 44.1471 24.3473 42.9508 23.3545 41.958C22.3617 40.9652 21.1654 40.4688 19.7656 40.4688C18.3659 40.4688 17.1696 40.9652 16.1768 41.958C15.1839 42.9508 14.6875 44.1471 14.6875 45.5469C14.6875 46.9466 15.1839 48.1429 16.1768 49.1357C17.1696 50.1286 18.3659 50.625 19.7656 50.625ZM19.7656 42.0312C20.7422 42.0312 21.5723 42.373 22.2559 43.0566C22.9395 43.7402 23.2812 44.5703 23.2812 45.5469C23.2812 46.5234 22.9395 47.3535 22.2559 48.0371C21.5723 48.7207 20.7422 49.0625 19.7656 49.0625C18.7891 49.0625 17.959 48.7207 17.2754 48.0371C16.5918 47.3535 16.25 46.5234 16.25 45.5469C16.25 44.5703 16.5918 43.7402 17.2754 43.0566C17.959 42.373 18.7891 42.0312 19.7656 42.0312ZM46.8164 51.4062C47.6953 51.4062 48.4521 51.0889 49.0869 50.4541C49.7217 49.8193 50.0391 49.0625 50.0391 48.1836C50.0391 47.3047 49.7217 46.5479 49.0869 45.9131C48.4521 45.2783 47.6953 44.9609 46.8164 44.9609C45.9375 44.9609 45.1807 45.2783 44.5459 45.9131C43.9111 46.5479 43.5938 47.3047 43.5938 48.1836C43.5938 49.0625 43.9111 49.8193 44.5459 50.4541C45.1807 51.0889 45.9375 51.4062 46.8164 51.4062ZM46.8164 46.5234C47.2721 46.5234 47.6628 46.6862 47.9883 47.0117C48.3138 47.3372 48.4766 47.7279 48.4766 48.1836C48.4766 48.6393 48.3138 49.0299 47.9883 49.3555C47.6628 49.681 47.2721 49.8438 46.8164 49.8438C46.3607 49.8438 45.9701 49.681 45.6445 49.3555C45.319 49.0299 45.1562 48.6393 45.1562 48.1836C45.1562 47.7279 45.319 47.3372 45.6445 47.0117C45.9701 46.6862 46.3607 46.5234 46.8164 46.5234ZM54.5312 43.5938H53.75V37.1973C53.75 35.9603 53.3024 34.8942 52.4072 33.999C51.512 33.1038 50.446 32.6562 49.209 32.6562H45.1562V29.5312C45.1562 29.3034 45.083 29.1162 44.9365 28.9697C44.79 28.8232 44.6029 28.75 44.375 28.75H43.5938V25.2832L45.5957 23.916C45.6934 23.8509 45.7747 23.7614 45.8398 23.6475C45.9049 23.5335 45.9375 23.4115 45.9375 23.2812C45.9375 23.0534 45.8643 22.8662 45.7178 22.7197C45.5713 22.5732 45.3841 22.5 45.1562 22.5C45.0586 22.5 44.9772 22.5081 44.9121 22.5244C44.847 22.5407 44.7819 22.5814 44.7168 22.6465L42.373 24.209C42.2754 24.2741 42.194 24.3636 42.1289 24.4775C42.0638 24.5915 42.0312 24.7135 42.0312 24.8438V28.75H41.25C41.0221 28.75 40.835 28.8232 40.6885 28.9697C40.542 29.1162 40.4688 29.3034 40.4688 29.5312V32.6562H38.7109L34.4629 18.5449C34.6257 18.4798 34.7559 18.3822 34.8535 18.252C34.9512 18.1217 35 17.9753 35 17.8125V16.0547C35 15.4688 34.7884 14.9642 34.3652 14.541C33.9421 14.1178 33.4375 13.9062 32.8516 13.9062H18.3984C17.8125 13.9062 17.3079 14.1178 16.8848 14.541C16.4616 14.9642 16.25 15.4688 16.25 16.0547V17.8125C16.25 18.0078 16.307 18.1706 16.4209 18.3008C16.5348 18.431 16.6732 18.5124 16.8359 18.5449L13.9551 30.752L10.1953 35.293C10.1302 35.3581 10.0814 35.4313 10.0488 35.5127C10.0163 35.5941 10 35.6836 10 35.7812C10 36.0091 10.0732 36.1963 10.2197 36.3428C10.3662 36.4893 10.5534 36.5625 10.7812 36.5625H14.6875C14.7852 36.5625 14.8828 36.5381 14.9805 36.4893C15.0781 36.4404 15.1595 36.3835 15.2246 36.3184L16.1523 35.4395L16.6895 36.3184C14.7363 36.9694 13.1331 38.1331 11.8799 39.8096C10.6266 41.486 10 43.3984 10 45.5469C10 46.9141 10.2604 48.1836 10.7812 49.3555C11.2695 50.5273 11.9613 51.5609 12.8564 52.4561C13.7516 53.3512 14.7852 54.043 15.957 54.5312C17.1289 55.0521 18.3984 55.3125 19.7656 55.3125C21.9792 55.3125 23.9404 54.6533 25.6494 53.335C27.3584 52.0166 28.5059 50.3483 29.0918 48.3301L29.1406 48.2812H39.6875C39.7201 50.2344 40.4281 51.8945 41.8115 53.2617C43.195 54.6289 44.8633 55.3125 46.8164 55.3125C48.7695 55.3125 50.4378 54.6289 51.8213 53.2617C53.2048 51.8945 53.9128 50.2344 53.9453 48.2812H54.5312C55.1823 48.2812 55.7357 48.0534 56.1914 47.5977C56.6471 47.1419 56.875 46.5885 56.875 45.9375C56.875 45.2865 56.6471 44.7331 56.1914 44.2773C55.7357 43.8216 55.1823 43.5938 54.5312 43.5938ZM49.209 34.2188C50.0228 34.2188 50.7227 34.5117 51.3086 35.0977C51.8945 35.6836 52.1875 36.3835 52.1875 37.1973V43.5449C51.5365 42.7962 50.7471 42.194 49.8193 41.7383C48.8916 41.2826 47.8906 41.0547 46.8164 41.0547C46.5234 41.0547 46.2305 41.071 45.9375 41.1035C45.6445 41.1361 45.3678 41.2012 45.1074 41.2988L45.1562 41.25V34.2188H49.209ZM42.0312 30.3125H43.5938V41.8359C43.3008 41.9987 43.0241 42.1696 42.7637 42.3486C42.5033 42.5277 42.2591 42.7148 42.0312 42.9102V30.3125ZM37.0508 46.7188L35.3906 43.5938H37.3438V46.7188H37.0508ZM15.6641 30.3125L18.4473 18.5938H20.1562V30.3125H15.6641ZM21.7188 18.5938H23.2812V30.3125H21.7188V18.5938ZM24.8438 18.5938H32.8516L37.0508 32.6562H35.5859C35.5534 32.6562 35.5208 32.6562 35.4883 32.6562C35.4557 32.6562 35.4395 32.6562 35.4395 32.6562L34.3164 30.9961L34.707 30.752C34.8047 30.6868 34.8779 30.5973 34.9268 30.4834C34.9756 30.3695 35 30.2474 35 30.1172C35 29.8893 34.9268 29.7021 34.7803 29.5557C34.6338 29.4092 34.4466 29.3359 34.2188 29.3359C34.1211 29.3359 34.0316 29.3522 33.9502 29.3848C33.8688 29.4173 33.7956 29.4499 33.7305 29.4824L31.3867 31.2402C31.2891 31.3053 31.2158 31.3949 31.167 31.5088C31.1182 31.6227 31.0938 31.7448 31.0938 31.875C31.0938 32.1029 31.167 32.29 31.3135 32.4365C31.46 32.583 31.6471 32.6562 31.875 32.6562C31.9727 32.6562 32.0622 32.64 32.1436 32.6074C32.2249 32.5749 32.2982 32.5423 32.3633 32.5098L33.0957 31.9727L33.877 33.1934C33.5189 33.4538 33.2259 33.7956 32.998 34.2188C32.7702 34.6419 32.6562 35.0977 32.6562 35.5859V38.3691L28.6523 30.752C28.5872 30.6217 28.4977 30.516 28.3838 30.4346C28.2699 30.3532 28.1315 30.3125 27.9688 30.3125H24.8438V18.5938ZM35.5859 34.2188H37.3438V35.7812H34.2188V35.5859C34.2188 35.1953 34.349 34.8698 34.6094 34.6094C34.8698 34.349 35.1953 34.2188 35.5859 34.2188ZM34.2188 37.3438H37.3438V38.9062H34.2188V37.3438ZM34.2188 41.3477C34.2188 41.3151 34.2188 41.2907 34.2188 41.2744C34.2188 41.2581 34.2188 41.25 34.2188 41.25V40.4688H37.3438V42.0312H34.5605L34.2188 41.3477ZM17.8125 16.0547C17.8125 15.8919 17.8695 15.7536 17.9834 15.6396C18.0973 15.5257 18.2357 15.4688 18.3984 15.4688H32.8516C33.0143 15.4688 33.1527 15.5257 33.2666 15.6396C33.3805 15.7536 33.4375 15.8919 33.4375 16.0547V17.0312H17.8125V16.0547ZM11.6602 46.7676L13.6133 45.4492C13.7435 45.3516 13.8411 45.2458 13.9062 45.1318C13.9714 45.0179 14.0039 44.8958 14.0039 44.7656C14.0039 44.5703 13.9225 44.3913 13.7598 44.2285C13.597 44.0658 13.418 43.9844 13.2227 43.9844C13.125 43.9844 13.0436 44.0007 12.9785 44.0332C12.9134 44.0658 12.8483 44.0983 12.7832 44.1309L11.6113 44.9121C11.6764 44.0983 11.8473 43.3333 12.124 42.6172C12.4007 41.901 12.7669 41.25 13.2227 40.6641H13.1738L15.5176 41.1523C15.5501 41.1523 15.5745 41.1523 15.5908 41.1523C15.6071 41.1523 15.6315 41.1523 15.6641 41.1523C15.8919 41.1523 16.0791 41.0791 16.2256 40.9326C16.3721 40.7861 16.4453 40.599 16.4453 40.3711C16.4453 40.1758 16.3883 40.0049 16.2744 39.8584C16.1605 39.7119 16.0059 39.6224 15.8105 39.5898L14.4434 39.3457C14.9967 38.8574 15.6234 38.4505 16.3232 38.125C17.0231 37.7995 17.7474 37.5716 18.4961 37.4414H18.5449L19.8633 39.4434C19.9609 39.541 20.0667 39.6224 20.1807 39.6875C20.2946 39.7526 20.4167 39.7852 20.5469 39.7852C20.7422 39.7852 20.9212 39.7119 21.084 39.5654C21.2467 39.4189 21.3281 39.2318 21.3281 39.0039C21.3281 38.9062 21.3118 38.8249 21.2793 38.7598C21.2467 38.6947 21.2142 38.6296 21.1816 38.5645L20.4004 37.3926C21.2142 37.4577 21.9792 37.6286 22.6953 37.9053C23.4115 38.182 24.0625 38.5482 24.6484 39.0039L24.1602 41.2988C24.1602 41.3314 24.1602 41.3639 24.1602 41.3965C24.1602 41.429 24.1602 41.4616 24.1602 41.4941C24.1602 41.6895 24.2334 41.8685 24.3799 42.0312C24.5264 42.194 24.7135 42.2754 24.9414 42.2754C25.1367 42.2754 25.3076 42.2103 25.4541 42.0801C25.6006 41.9499 25.6901 41.8034 25.7227 41.6406L25.9668 40.2246C26.4551 40.8105 26.862 41.4453 27.1875 42.1289C27.513 42.8125 27.7409 43.5449 27.8711 44.3262V44.375L25.8691 45.6934C25.7715 45.7585 25.6901 45.848 25.625 45.9619C25.5599 46.0758 25.5273 46.1979 25.5273 46.3281C25.5273 46.556 25.6006 46.7432 25.7471 46.8896C25.8936 47.0361 26.0807 47.1094 26.3086 47.1094C26.3737 47.1094 26.4469 47.1012 26.5283 47.085C26.6097 47.0687 26.6829 47.0443 26.748 47.0117L27.9199 46.1816C27.8548 46.9954 27.6839 47.7604 27.4072 48.4766C27.1305 49.1927 26.7643 49.86 26.3086 50.4785V50.4297L24.0137 49.9902C23.9811 49.9902 23.9486 49.9821 23.916 49.9658C23.8835 49.9495 23.8509 49.9414 23.8184 49.9414C23.623 49.9414 23.444 50.0228 23.2812 50.1855C23.1185 50.3483 23.0371 50.5273 23.0371 50.7227C23.0371 50.918 23.1022 51.0889 23.2324 51.2354C23.3626 51.3818 23.5091 51.4714 23.6719 51.5039L25.0879 51.7969C24.502 52.2852 23.8672 52.6839 23.1836 52.9932C22.5 53.3024 21.7676 53.5221 20.9863 53.6523H20.9375L19.6191 51.6992C19.554 51.569 19.4645 51.4714 19.3506 51.4062C19.2367 51.3411 19.1146 51.3086 18.9844 51.3086C18.7565 51.3086 18.5693 51.39 18.4229 51.5527C18.2764 51.7155 18.2031 51.8945 18.2031 52.0898C18.2031 52.1875 18.2113 52.2689 18.2275 52.334C18.2438 52.3991 18.2682 52.4642 18.3008 52.5293L19.1309 53.7012C18.3171 53.6361 17.5521 53.4652 16.8359 53.1885C16.1198 52.9118 15.4525 52.5456 14.834 52.0898L14.8828 52.1387L15.3223 49.7949C15.3223 49.7624 15.3304 49.738 15.3467 49.7217C15.363 49.7054 15.3711 49.681 15.3711 49.6484C15.3711 49.4206 15.2897 49.2334 15.127 49.0869C14.9642 48.9404 14.7852 48.8672 14.5898 48.8672C14.3945 48.8672 14.2236 48.9242 14.0771 49.0381C13.9307 49.152 13.8411 49.3066 13.8086 49.502L13.5156 50.8691C13.0273 50.3158 12.6286 49.6891 12.3193 48.9893C12.0101 48.2894 11.7904 47.5651 11.6602 46.8164V46.7676ZM19.7656 35.7812C19.5052 35.7812 19.2529 35.7975 19.0088 35.8301C18.7646 35.8626 18.5124 35.8952 18.252 35.9277H18.3008L17.7148 35H25.918L32.1191 46.7188H29.4336C29.4661 46.556 29.4906 46.377 29.5068 46.1816C29.5231 45.9863 29.5312 45.7747 29.5312 45.5469C29.5312 44.2122 29.2708 42.9427 28.75 41.7383C28.2292 40.5664 27.5293 39.541 26.6504 38.6621C25.7715 37.7832 24.7461 37.0833 23.5742 36.5625C22.3698 36.0417 21.1003 35.7812 19.7656 35.7812ZM33.9258 46.7188L27.0898 33.877C27.0247 33.7467 26.9352 33.641 26.8213 33.5596C26.7074 33.4782 26.569 33.4375 26.4062 33.4375H16.25C16.1523 33.4375 16.0547 33.4619 15.957 33.5107C15.8594 33.5596 15.778 33.6165 15.7129 33.6816L14.3457 35H12.4414L15.0293 31.875H27.4805L35.293 46.7188H33.9258ZM38.9062 34.2188H40.4688V44.9609C40.3385 45.2214 40.2165 45.498 40.1025 45.791C39.9886 46.084 39.8991 46.377 39.834 46.6699V46.7188H38.9062V34.2188ZM41.3965 49.3555L42.373 48.6719C42.4707 48.5742 42.5521 48.4766 42.6172 48.3789C42.6823 48.2812 42.7148 48.1673 42.7148 48.0371C42.7148 47.8092 42.6416 47.6221 42.4951 47.4756C42.3486 47.3291 42.1615 47.2559 41.9336 47.2559C41.8685 47.2559 41.7952 47.264 41.7139 47.2803C41.6325 47.2965 41.5592 47.321 41.4941 47.3535L41.2988 47.5C41.3639 47.0768 41.4697 46.6699 41.6162 46.2793C41.7627 45.8887 41.9499 45.5143 42.1777 45.1562H42.1289L43.3496 45.4004C43.3822 45.4004 43.4066 45.4004 43.4229 45.4004C43.4391 45.4004 43.4635 45.4004 43.4961 45.4004C43.724 45.4004 43.9111 45.3271 44.0576 45.1807C44.2041 45.0342 44.2773 44.847 44.2773 44.6191C44.2773 44.4238 44.2122 44.2529 44.082 44.1064C43.9518 43.96 43.8053 43.8704 43.6426 43.8379L43.3984 43.7891C43.724 43.5612 44.0658 43.3577 44.4238 43.1787C44.7819 42.9997 45.1725 42.8613 45.5957 42.7637H45.6445L46.3281 43.7891C46.4258 43.8867 46.5234 43.9681 46.6211 44.0332C46.7188 44.0983 46.8327 44.1309 46.9629 44.1309C47.1908 44.1309 47.3779 44.0495 47.5244 43.8867C47.6709 43.724 47.7441 43.5449 47.7441 43.3496C47.7441 43.252 47.736 43.1624 47.7197 43.0811C47.7034 42.9997 47.679 42.9264 47.6465 42.8613L47.5 42.666C47.9232 42.7311 48.3301 42.8369 48.7207 42.9834C49.1113 43.1299 49.4857 43.3171 49.8438 43.5449L49.5996 44.7168C49.5996 44.7493 49.5996 44.7819 49.5996 44.8145C49.5996 44.847 49.5996 44.8633 49.5996 44.8633C49.5996 45.0911 49.6729 45.2783 49.8193 45.4248C49.9658 45.5713 50.153 45.6445 50.3809 45.6445C50.5762 45.6445 50.7471 45.5876 50.8936 45.4736C51.04 45.3597 51.1296 45.2051 51.1621 45.0098L51.2109 44.7656C51.4388 45.0911 51.6423 45.4411 51.8213 45.8154C52.0003 46.1898 52.1387 46.5723 52.2363 46.9629V47.0117L51.2109 47.7441C51.1133 47.8092 51.0319 47.8988 50.9668 48.0127C50.9017 48.1266 50.8691 48.2487 50.8691 48.3789C50.8691 48.5742 50.9505 48.7533 51.1133 48.916C51.276 49.0788 51.4551 49.1602 51.6504 49.1602C51.748 49.1602 51.8376 49.1439 51.9189 49.1113C52.0003 49.0788 52.0736 49.0462 52.1387 49.0137L52.334 48.8672C52.2689 49.3229 52.1631 49.7461 52.0166 50.1367C51.8701 50.5273 51.6829 50.8854 51.4551 51.2109L50.2832 50.9668C50.2507 50.9668 50.2262 50.9668 50.21 50.9668C50.1937 50.9668 50.1693 50.9668 50.1367 50.9668C49.9089 50.9668 49.7217 51.0482 49.5752 51.2109C49.4287 51.3737 49.3555 51.5527 49.3555 51.748C49.3555 51.9434 49.4124 52.1143 49.5264 52.2607C49.6403 52.4072 49.7949 52.4967 49.9902 52.5293L50.2344 52.5781C49.9089 52.806 49.5589 53.0094 49.1846 53.1885C48.8102 53.3675 48.4277 53.5059 48.0371 53.6035H47.9883L47.2559 52.627C47.1908 52.5293 47.1012 52.4479 46.9873 52.3828C46.8734 52.3177 46.7513 52.2852 46.6211 52.2852C46.4258 52.2852 46.2467 52.3584 46.084 52.5049C45.9212 52.6514 45.8398 52.8385 45.8398 53.0664C45.8398 53.1315 45.8561 53.2048 45.8887 53.2861C45.9212 53.3675 45.9538 53.4408 45.9863 53.5059L46.1328 53.7012C45.6771 53.6361 45.2539 53.5303 44.8633 53.3838C44.4727 53.2373 44.1146 53.0501 43.7891 52.8223V52.8711L44.0332 51.6504C44.0332 51.6178 44.0332 51.5934 44.0332 51.5771C44.0332 51.5609 44.0332 51.5365 44.0332 51.5039C44.0332 51.3086 43.9518 51.1296 43.7891 50.9668C43.6263 50.804 43.4473 50.7227 43.252 50.7227C43.0566 50.7227 42.8857 50.7878 42.7393 50.918C42.5928 51.0482 42.5033 51.1947 42.4707 51.3574L42.4219 51.6016C42.194 51.3086 41.9906 50.9749 41.8115 50.6006C41.6325 50.2262 41.4941 49.8275 41.3965 49.4043V49.3555ZM54.5312 46.7188H53.7988C53.7337 46.4258 53.6523 46.1491 53.5547 45.8887C53.457 45.6283 53.3431 45.3678 53.2129 45.1074L53.2617 45.1562H54.5312C54.7591 45.1562 54.9463 45.2295 55.0928 45.376C55.2393 45.5225 55.3125 45.7096 55.3125 45.9375C55.3125 46.1654 55.2393 46.3525 55.0928 46.499C54.9463 46.6455 54.7591 46.7188 54.5312 46.7188ZM47.5 38.9062C47.7279 38.9062 47.915 38.833 48.0615 38.6865C48.208 38.54 48.2812 38.3529 48.2812 38.125V36.5625C48.2812 36.3346 48.208 36.1475 48.0615 36.001C47.915 35.8545 47.7279 35.7812 47.5 35.7812C47.2721 35.7812 47.085 35.8545 46.9385 36.001C46.792 36.1475 46.7188 36.3346 46.7188 36.5625V38.125C46.7188 38.3529 46.792 38.54 46.9385 38.6865C47.085 38.833 47.2721 38.9062 47.5 38.9062ZM49.8438 38.9062C50.0716 38.9062 50.2588 38.833 50.4053 38.6865C50.5518 38.54 50.625 38.3529 50.625 38.125V36.5625C50.625 36.3346 50.5518 36.1475 50.4053 36.001C50.2588 35.8545 50.0716 35.7812 49.8438 35.7812C49.6159 35.7812 49.4287 35.8545 49.2822 36.001C49.1357 36.1475 49.0625 36.3346 49.0625 36.5625V38.125C49.0625 38.3529 49.1357 38.54 49.2822 38.6865C49.4287 38.833 49.6159 38.9062 49.8438 38.9062Z" fill="white"/>
</svg>
