<svg width="50" height="50" viewBox="0 0 50 50" fill="none" xmlns="http://www.w3.org/2000/svg">
<path d="M37.5 29.4434C39.974 29.4434 42.0817 30.3141 43.8232 32.0557C45.5648 33.7972 46.4355 35.9049 46.4355 38.3789C46.4355 40.8529 45.5648 42.9606 43.8232 44.7021C42.0817 46.4437 39.974 47.3145 37.5 47.3145C35.026 47.3145 32.9183 46.4437 31.1768 44.7021C29.4352 42.9606 28.5645 40.8529 28.5645 38.3789C28.5645 38.2487 28.5726 38.1022 28.5889 37.9395C28.6051 37.7767 28.6133 37.6139 28.6133 37.4512L18.5547 32.4219C17.7734 33.1706 16.862 33.7565 15.8203 34.1797C14.7786 34.6029 13.6719 34.8145 12.5 34.8145C10.026 34.8145 7.91829 33.9437 6.17676 32.2021C4.43522 30.4606 3.56445 28.3529 3.56445 25.8789C3.56445 23.4049 4.43522 21.2972 6.17676 19.5557C7.91829 17.8141 10.026 16.9434 12.5 16.9434C13.6719 16.9434 14.7786 17.1631 15.8203 17.6025C16.862 18.042 17.7734 18.6361 18.5547 19.3848L28.6133 14.3555C28.6133 14.1927 28.6051 14.0299 28.5889 13.8672C28.5726 13.7044 28.5645 13.5417 28.5645 13.3789C28.5645 10.9049 29.4352 8.7972 31.1768 7.05566C32.9183 5.31413 35.026 4.44336 37.5 4.44336C39.974 4.44336 42.0817 5.31413 43.8232 7.05566C45.5648 8.7972 46.4355 10.9049 46.4355 13.3789C46.4355 15.8529 45.5648 17.9606 43.8232 19.7021C42.0817 21.4437 39.974 22.3145 37.5 22.3145C36.3281 22.3145 35.2214 22.1029 34.1797 21.6797C33.138 21.2565 32.2103 20.6706 31.3965 19.9219L21.3867 24.9512C21.3867 25.1139 21.3949 25.2767 21.4111 25.4395C21.4274 25.6022 21.4355 25.7487 21.4355 25.8789C21.4355 26.0417 21.4274 26.2044 21.4111 26.3672C21.3949 26.5299 21.3867 26.6927 21.3867 26.8555L31.3965 31.8848C32.2103 31.1361 33.138 30.542 34.1797 30.1025C35.2214 29.6631 36.3281 29.4434 37.5 29.4434Z" fill="white"/>
</svg>
