<svg width="70" height="70" viewBox="0 0 70 70" fill="none" xmlns="http://www.w3.org/2000/svg">
<rect width="70" height="70" rx="7" fill="#C5CE38"/>
<g clip-path="url(#clip0_4138_837)">
<path d="M50.918 58.4375C50.2018 57.9167 49.4368 57.4609 48.623 57.0703C47.8092 56.6797 46.9954 56.3379 46.1816 56.0449C44.6842 55.459 42.6986 54.8893 40.2246 54.3359C37.7507 53.7826 34.8047 53.4896 31.3867 53.457C31.4518 52.9688 31.5576 52.3991 31.7041 51.748C31.8506 51.097 32.0703 50.3809 32.3633 49.5996C32.6888 48.8509 33.055 48.1429 33.4619 47.4756C33.8688 46.8083 34.3327 46.1654 34.8535 45.5469C35.1139 45.6445 35.5371 45.7747 36.123 45.9375C36.709 46.1003 37.4251 46.1816 38.2715 46.1816C39.0202 46.1816 39.8421 46.0677 40.7373 45.8398C41.6325 45.612 42.5521 45.1725 43.4961 44.5215C45.7422 42.9915 46.9954 41.2988 47.2559 39.4434C47.5163 37.5879 47.6465 36.5951 47.6465 36.4648C47.6465 36.3346 47.6058 36.2207 47.5244 36.123C47.443 36.0254 47.3372 35.944 47.207 35.8789C47.1745 35.8789 47.0117 35.8138 46.7188 35.6836C46.4258 35.5534 46.0352 35.4395 45.5469 35.3418C45.9375 34.6908 46.2793 34.0234 46.5723 33.3398C46.8652 32.6562 47.1094 31.9401 47.3047 31.1914C47.4349 30.7357 47.264 30.4508 46.792 30.3369C46.32 30.223 46.0189 30.3939 45.8887 30.8496C45.6934 31.6309 45.4248 32.3796 45.083 33.0957C44.7412 33.8118 44.3424 34.4954 43.8867 35.1465C43.1055 35.1465 42.2266 35.2604 41.25 35.4883C40.2734 35.7161 39.2806 36.1882 38.2715 36.9043C37.5228 37.4251 36.8962 37.9948 36.3916 38.6133C35.887 39.2318 35.4883 39.8503 35.1953 40.4688C34.5443 40.5339 33.9502 40.5583 33.4131 40.542C32.876 40.5257 32.4284 40.5013 32.0703 40.4688C32.4284 39.9479 32.9329 39.2969 33.584 38.5156C34.235 37.7018 34.9919 36.8473 35.8545 35.9521C36.7171 35.057 37.653 34.1699 38.6621 33.291C39.6712 32.4447 40.7129 31.696 41.7871 31.0449C42.2103 30.8171 42.2998 30.4915 42.0557 30.0684C41.8115 29.6452 41.4779 29.5475 41.0547 29.7754C38.9388 31.0124 37.0101 32.5667 35.2686 34.4385C33.527 36.3102 32.2168 37.832 31.3379 39.0039C31.2728 37.8646 31.4437 36.3835 31.8506 34.5605C32.2575 32.7376 33.3073 30.9961 35 29.3359C36.0742 28.2292 37.2624 27.3584 38.5645 26.7236C39.8665 26.0889 41.25 25.6901 42.7148 25.5273C43.4961 25.4622 44.1797 25.4541 44.7656 25.5029C45.3516 25.5518 45.8073 25.5924 46.1328 25.625C46.1654 25.8203 46.1979 26.0726 46.2305 26.3818C46.263 26.6911 46.2793 27.041 46.2793 27.4316C46.2793 27.8874 46.5234 28.1152 47.0117 28.1152C47.5 28.1152 47.7441 27.8711 47.7441 27.3828C47.7441 26.6341 47.6953 26.0319 47.5977 25.5762C47.5 25.1204 47.4512 24.8763 47.4512 24.8438C47.4186 24.7135 47.3535 24.6077 47.2559 24.5264C47.1582 24.445 47.0605 24.3717 46.9629 24.3066C46.8978 24.3066 46.4665 24.2415 45.6689 24.1113C44.8714 23.9811 43.8542 23.9648 42.6172 24.0625C41.4779 24.1927 40.127 24.5508 38.5645 25.1367C37.002 25.7227 35.4557 26.7806 33.9258 28.3105C33.7956 28.4408 33.6735 28.5628 33.5596 28.6768C33.4456 28.7907 33.3398 28.9128 33.2422 29.043C33.4375 28.4245 33.6491 27.7734 33.877 27.0898C34.1048 26.4062 34.3327 25.7227 34.5605 25.0391C35.2116 24.8438 36.1963 24.3311 37.5146 23.501C38.833 22.6709 39.8503 21.2305 40.5664 19.1797C41.4453 16.6081 41.4453 14.5003 40.5664 12.8564C39.6875 11.2126 39.2155 10.3418 39.1504 10.2441C39.0527 10.1465 38.9469 10.0814 38.833 10.0488C38.7191 10.0163 38.597 10 38.4668 10C38.3691 10.0326 37.4658 10.415 35.7568 11.1475C34.0479 11.8799 32.7376 13.5482 31.8262 16.1523C31.0775 18.3008 31.0205 20.1562 31.6553 21.7188C32.29 23.2812 32.7702 24.2741 33.0957 24.6973C32.9004 25.3483 32.6969 25.9912 32.4854 26.626C32.2738 27.2607 32.0703 27.8711 31.875 28.457C31.7448 27.4805 31.46 26.4225 31.0205 25.2832C30.5811 24.1439 29.9219 23.0208 29.043 21.9141C27.7083 20.2214 26.3005 18.9925 24.8193 18.2275C23.3382 17.4626 22.0443 16.9499 20.9375 16.6895C19.7005 16.429 18.6833 16.3232 17.8857 16.3721C17.0882 16.4209 16.6732 16.4453 16.6406 16.4453C16.5104 16.4779 16.3883 16.5348 16.2744 16.6162C16.1605 16.6976 16.0872 16.7871 16.0547 16.8848C16.0547 16.9173 15.9652 17.2266 15.7861 17.8125C15.6071 18.3984 15.4688 19.1634 15.3711 20.1074C15.3385 20.5957 15.5664 20.8561 16.0547 20.8887C16.543 20.9212 16.8034 20.7096 16.8359 20.2539C16.8685 19.7005 16.9336 19.2204 17.0312 18.8135C17.1289 18.4066 17.2103 18.0892 17.2754 17.8613C17.6009 17.8288 18.0566 17.8288 18.6426 17.8613C19.2285 17.8939 19.8958 17.9915 20.6445 18.1543C22.1094 18.4798 23.444 19.0332 24.6484 19.8145C25.8529 20.5957 26.9434 21.6048 27.9199 22.8418C28.7988 23.9811 29.4661 25.2181 29.9219 26.5527C30.3776 27.8874 30.5892 29.3034 30.5566 30.8008C30.5566 31.2891 30.5322 31.7367 30.4834 32.1436C30.4346 32.5505 30.3776 32.9167 30.3125 33.2422C28.8802 30.5404 27.3503 28.2699 25.7227 26.4307C24.0951 24.5915 23.2324 23.623 23.1348 23.5254C22.8092 23.1999 22.4756 23.208 22.1338 23.5498C21.792 23.8916 21.7839 24.2253 22.1094 24.5508C22.1094 24.5833 22.9395 25.5355 24.5996 27.4072C26.2598 29.279 27.7897 31.5495 29.1895 34.2188C28.8639 34.2188 28.4896 34.1943 28.0664 34.1455C27.6432 34.0967 27.1875 34.0234 26.6992 33.9258C25.2669 33.6003 23.9567 33.0632 22.7686 32.3145C21.5804 31.5658 20.5143 30.5892 19.5703 29.3848C18.9193 28.571 18.3822 27.7083 17.959 26.7969C17.5358 25.8854 17.2266 24.9414 17.0312 23.9648C16.9336 23.4766 16.6488 23.2812 16.1768 23.3789C15.7048 23.4766 15.5176 23.7695 15.6152 24.2578C15.8431 25.332 16.193 26.3818 16.665 27.4072C17.137 28.4326 17.7311 29.401 18.4473 30.3125C19.7493 31.9727 21.1328 33.1689 22.5977 33.9014C24.0625 34.6338 25.3483 35.1302 26.4551 35.3906C27.0085 35.4883 27.57 35.5697 28.1396 35.6348C28.7093 35.6999 29.2871 35.7161 29.873 35.6836V48.0371C29.7428 47.7767 29.6208 47.5326 29.5068 47.3047C29.3929 47.0768 29.2708 46.8652 29.1406 46.6699C29.1732 46.2467 29.0592 44.9935 28.7988 42.9102C28.5384 40.8268 27.2363 38.8574 24.8926 37.002C22.3535 34.9837 19.9854 34.1536 17.7881 34.5117C15.5908 34.8698 14.4271 35.0651 14.2969 35.0977C14.1992 35.1628 14.1097 35.2441 14.0283 35.3418C13.9469 35.4395 13.89 35.5534 13.8574 35.6836C13.8249 35.7812 13.8981 36.945 14.0771 39.1748C14.2562 41.4046 15.6315 43.5286 18.2031 45.5469C19.375 46.4909 20.5632 47.1257 21.7676 47.4512C22.972 47.7767 24.0625 47.9395 25.0391 47.9395C25.6576 47.9395 26.2272 47.8988 26.748 47.8174C27.2689 47.736 27.6758 47.6465 27.9688 47.5488C28.4896 48.4603 28.9046 49.4043 29.2139 50.3809C29.5231 51.3574 29.7103 52.3828 29.7754 53.457C27.8874 53.4896 26.0645 53.6117 24.3066 53.8232C22.5488 54.0348 20.8724 54.3359 19.2773 54.7266C18.8216 54.8568 18.6507 55.1579 18.7646 55.6299C18.8786 56.1019 19.1634 56.2891 19.6191 56.1914C21.1816 55.8008 22.8174 55.4997 24.5264 55.2881C26.2354 55.0765 28.0176 54.9544 29.873 54.9219V56.582C29.873 57.0703 30.1172 57.3145 30.6055 57.3145C31.0938 57.3145 31.3379 57.0703 31.3379 56.582V54.9219C33.4863 54.9219 35.4395 55.0521 37.1973 55.3125C38.9876 55.5729 40.5827 55.8822 41.9824 56.2402C43.3822 56.5983 44.6029 56.9727 45.6445 57.3633C46.6862 57.7865 47.5488 58.1771 48.2324 58.5352H13.2227C13.5807 58.3398 13.9876 58.1364 14.4434 57.9248C14.8991 57.7132 15.4199 57.5098 16.0059 57.3145C16.429 57.1517 16.5592 56.8424 16.3965 56.3867C16.2337 55.931 15.9245 55.7845 15.4688 55.9473C14.5573 56.2728 13.776 56.6064 13.125 56.9482C12.474 57.29 11.9531 57.5749 11.5625 57.8027C10.7812 58.2585 10.3255 58.584 10.1953 58.7793C10.0651 58.9746 10 59.1374 10 59.2676C10 59.4629 10.0732 59.6338 10.2197 59.7803C10.3662 59.9268 10.5371 60 10.7324 60H50.7715C51.3574 60 51.5934 59.7884 51.4795 59.3652C51.3656 58.9421 51.1784 58.6328 50.918 58.4375ZM39.1016 38.125C40.6315 37.0508 42.0638 36.5544 43.3984 36.6357C44.7331 36.7171 45.6608 36.8555 46.1816 37.0508C46.1491 37.6042 45.9375 38.5238 45.5469 39.8096C45.1562 41.0954 44.196 42.2591 42.666 43.3008C41.2988 44.2773 39.9967 44.7493 38.7598 44.7168C37.5228 44.6842 36.5951 44.5703 35.9766 44.375C36.6927 43.724 37.4902 43.1136 38.3691 42.5439C39.248 41.9743 40.2083 41.4779 41.25 41.0547C41.6732 40.8594 41.7871 40.5339 41.5918 40.0781C41.3965 39.6224 41.0872 39.4922 40.6641 39.6875C39.7201 40.0781 38.8656 40.5094 38.1006 40.9814C37.3356 41.4535 36.6439 41.9499 36.0254 42.4707C36.1882 41.7871 36.5055 41.0465 36.9775 40.249C37.4495 39.4515 38.1576 38.7435 39.1016 38.125ZM33.584 42.0312C33.7467 42.0312 33.9176 42.0231 34.0967 42.0068C34.2757 41.9906 34.4466 41.9824 34.6094 41.9824C34.4792 42.4056 34.3896 42.7962 34.3408 43.1543C34.292 43.5124 34.2676 43.8216 34.2676 44.082C33.5514 44.7982 32.9574 45.5306 32.4854 46.2793C32.0133 47.028 31.6309 47.7441 31.3379 48.4277V41.8359C31.5658 41.8685 31.875 41.9092 32.2656 41.958C32.6562 42.0068 33.0957 42.0312 33.584 42.0312ZM33.1934 16.6406C33.8118 14.8503 34.6826 13.597 35.8057 12.8809C36.9287 12.1647 37.7507 11.7253 38.2715 11.5625C38.597 12.0182 38.9795 12.8809 39.4189 14.1504C39.8584 15.4199 39.7689 16.9336 39.1504 18.6914C38.6947 20.026 38.0762 21.0433 37.2949 21.7432C36.5137 22.443 35.7975 22.9395 35.1465 23.2324C35.6348 21.8327 36.0986 20.5062 36.5381 19.2529C36.9775 17.9997 37.3763 16.9499 37.7344 16.1035C37.8971 15.6803 37.7507 15.3711 37.2949 15.1758C36.8392 14.9805 36.5299 15.1107 36.3672 15.5664C36.0091 16.4128 35.6022 17.487 35.1465 18.7891C34.6908 20.0911 34.2188 21.4746 33.7305 22.9395C33.3724 22.2884 33.0794 21.4176 32.8516 20.3271C32.6237 19.2367 32.7376 18.0078 33.1934 16.6406ZM19.082 44.4238C18.1706 43.6751 17.4137 42.8369 16.8115 41.9092C16.2093 40.9814 15.778 39.9642 15.5176 38.8574C15.3874 38.304 15.3141 37.8076 15.2979 37.3682C15.2816 36.9287 15.2734 36.5788 15.2734 36.3184C15.8919 36.1556 17.0475 36.0579 18.7402 36.0254C20.4329 35.9928 22.1908 36.6927 24.0137 38.125C24.9251 38.8411 25.6657 39.6631 26.2354 40.5908C26.805 41.5186 27.2201 42.5358 27.4805 43.6426C27.513 43.8053 27.5456 43.96 27.5781 44.1064C27.6107 44.2529 27.627 44.3913 27.627 44.5215C27.3991 44.2285 27.1631 43.9518 26.9189 43.6914C26.6748 43.431 26.4225 43.1868 26.1621 42.959C24.9251 41.7871 23.7777 40.9326 22.7197 40.3955C21.6618 39.8584 21.1003 39.5898 21.0352 39.5898C20.612 39.3945 20.3109 39.5247 20.1318 39.9805C19.9528 40.4362 20.0749 40.7617 20.498 40.957C20.5306 40.957 21.027 41.2012 21.9873 41.6895C22.9476 42.1777 24.0137 42.959 25.1855 44.0332C25.5436 44.3913 25.8854 44.7575 26.2109 45.1318C26.5365 45.5062 26.8457 45.8887 27.1387 46.2793C26.3249 46.4421 25.1693 46.4746 23.6719 46.377C22.1745 46.2793 20.6445 45.6283 19.082 44.4238Z" fill="white"/>
</g>
<defs>
<clipPath id="clip0_4138_837">
<rect width="50" height="50" fill="white" transform="matrix(1 0 0 -1 10 60)"/>
</clipPath>
</defs>
</svg>
