<svg width="31" height="43" viewBox="0 0 31 43" fill="none" xmlns="http://www.w3.org/2000/svg">
<path d="M30.25 31.3682C29.75 31.0322 29.1562 30.8643 28.4688 30.8643C27.7812 30.8643 27.2083 31.0322 26.75 31.3682L18 37.2471V1.67969C18 1.20378 17.7604 0.804852 17.2812 0.48291C16.8021 0.160969 16.2083 0 15.5 0C14.7917 0 14.1979 0.160969 13.7188 0.48291C13.2396 0.804852 13 1.20378 13 1.67969V37.2471L4.25 31.3682C3.79167 31.0322 3.21875 30.8643 2.53125 30.8643C1.84375 30.8643 1.25 31.0322 0.75 31.3682C0.25 31.6761 0 32.061 0 32.5229C0 32.9849 0.25 33.3838 0.75 33.7197L13.75 42.4961C14.2083 42.832 14.7917 43 15.5 43C16.2083 43 16.7917 42.832 17.25 42.4961L30.25 33.7197C30.75 33.3838 31 32.9849 31 32.5229C31 32.061 30.75 31.6761 30.25 31.3682Z" fill="#1F1E17"/>
</svg>
