<svg width="15" height="20" viewBox="0 0 15 20" fill="none" xmlns="http://www.w3.org/2000/svg">
<g clip-path="url(#clip0_4138_732)">
<path d="M10.5694 8.37445C10.5694 8.93324 10.4297 9.46239 10.1503 9.96191C9.87935 10.453 9.50471 10.8826 9.02636 11.2509C8.54801 11.6192 7.9871 11.9092 7.34366 12.1209C6.70021 12.3325 6.01443 12.4383 5.28631 12.4383C4.76986 12.4383 4.27246 12.3833 3.7941 12.2732C3.31575 12.1632 2.86914 12.0066 2.45429 11.8034C2.18336 11.9642 1.85741 12.1103 1.47642 12.2415C1.09543 12.3727 0.672105 12.4383 0.206451 12.4383C0.164119 12.4383 0.12602 12.4278 0.0921542 12.4066C0.0582885 12.3854 0.0328892 12.3537 0.0159563 12.3113C-0.000976562 12.2775 -0.00520978 12.2394 0.00325666 12.197C0.0117231 12.1547 0.028656 12.1209 0.0540553 12.0955C0.0625217 12.0955 0.174702 11.96 0.390596 11.6891C0.60649 11.4181 0.799102 11.0922 0.96843 10.7112C0.663639 10.381 0.426578 10.0169 0.25725 9.61902C0.087921 9.2211 0.00325666 8.80624 0.00325666 8.37445C0.00325666 7.81567 0.142953 7.28652 0.422345 6.787C0.693271 6.29594 1.06791 5.86627 1.54626 5.49798C2.02462 5.12969 2.58552 4.83972 3.22897 4.62805C3.87242 4.41639 4.5582 4.31056 5.28631 4.31056C6.01443 4.31056 6.70021 4.41639 7.34366 4.62805C7.9871 4.83972 8.54801 5.12969 9.02636 5.49798C9.50471 5.86627 9.87935 6.29594 10.1503 6.787C10.4297 7.28652 10.5694 7.81567 10.5694 8.37445ZM13.6681 13.9623C13.8374 14.3433 14.03 14.6692 14.2459 14.9402C14.4618 15.2111 14.574 15.3466 14.5825 15.3466C14.6079 15.3804 14.6248 15.4164 14.6333 15.4545C14.6417 15.4926 14.6375 15.5286 14.6206 15.5625C14.6036 15.6048 14.5782 15.6365 14.5444 15.6577C14.5105 15.6789 14.4724 15.6895 14.4301 15.6895C13.9644 15.6895 13.5411 15.6238 13.1601 15.4926C12.7791 15.3614 12.4531 15.2153 12.1822 15.0545C11.7674 15.2577 11.3229 15.4143 10.8488 15.5244C10.3746 15.6344 9.87512 15.6895 9.3502 15.6895C8.79988 15.6895 8.27496 15.6302 7.77544 15.5117C7.27592 15.3847 6.8145 15.2111 6.39118 14.991C5.96786 14.7708 5.59534 14.5084 5.27361 14.2036C4.94342 13.8988 4.68096 13.5644 4.48623 13.2003C4.61323 13.2173 4.74446 13.23 4.87992 13.2384C5.01539 13.2469 5.15085 13.2511 5.28631 13.2511C6.12449 13.2511 6.9161 13.1241 7.66115 12.8701C8.39773 12.6161 9.04118 12.2669 9.59149 11.8224C10.1418 11.3779 10.5778 10.8594 10.8996 10.2667C11.2213 9.67405 11.3821 9.0433 11.3821 8.37445C11.3821 8.28979 11.38 8.20512 11.3758 8.12046C11.3716 8.0358 11.361 7.95113 11.344 7.86647C11.8266 8.01886 12.2711 8.21782 12.6775 8.46335C13.0754 8.71734 13.4204 9.00732 13.7125 9.33328C14.0046 9.65923 14.2311 10.0169 14.392 10.4064C14.5528 10.7959 14.6333 11.2022 14.6333 11.6256C14.6333 12.0574 14.5486 12.4722 14.3793 12.8701C14.2099 13.2681 13.9729 13.6321 13.6681 13.9623Z" fill="#EEC044"/>
</g>
<defs>
<clipPath id="clip0_4138_732">
<rect width="14.63" height="20" fill="white" transform="matrix(1 0 0 -1 0 20)"/>
</clipPath>
</defs>
</svg>
