<svg width="16" height="16" viewBox="0 0 16 16" fill="none" xmlns="http://www.w3.org/2000/svg">
<path d="M15.9223 5.7969C15.8702 5.63024 15.7791 5.49482 15.6489 5.39065C15.5187 5.28649 15.3702 5.22399 15.2036 5.20315L10.5786 4.7969L8.75043 0.515654C8.68793 0.359404 8.58377 0.234404 8.43793 0.140654C8.2921 0.0469036 8.13585 2.86102e-05 7.96918 2.86102e-05C7.80252 2.86102e-05 7.64627 0.0469036 7.50043 0.140654C7.3546 0.234404 7.25043 0.359404 7.18793 0.515654L5.35981 4.7969L0.734809 5.20315C0.568142 5.22399 0.419705 5.28649 0.289497 5.39065C0.159288 5.49482 0.0681424 5.63024 0.016059 5.7969C-0.0360243 5.95315 -0.0412326 6.11461 0.000434028 6.28128C0.0421007 6.44795 0.130642 6.58857 0.266059 6.70315L3.75043 9.76565L2.71918 14.2969C2.68793 14.4636 2.70095 14.625 2.75825 14.7813C2.81554 14.9375 2.91189 15.0677 3.04731 15.1719C3.12023 15.224 3.20095 15.263 3.2895 15.2891C3.37804 15.3151 3.46398 15.3282 3.54731 15.3282C3.62023 15.3282 3.69575 15.3177 3.77387 15.2969C3.852 15.2761 3.92231 15.25 3.98481 15.2188L7.96918 12.8282L11.9536 15.2188C12.0994 15.3021 12.2556 15.3412 12.4223 15.336C12.589 15.3308 12.7452 15.2761 12.8911 15.1719C13.0265 15.0677 13.1228 14.9375 13.1801 14.7813C13.2374 14.625 13.2504 14.4636 13.2192 14.2969L12.1879 9.76565L15.6723 6.70315C15.8077 6.58857 15.8963 6.44795 15.9379 6.28128C15.9796 6.11461 15.9744 5.95315 15.9223 5.7969Z" fill="#EEC044"/>
</svg>
