<svg width="13" height="13" viewBox="0 0 13 13" fill="none" xmlns="http://www.w3.org/2000/svg">
<g clip-path="url(#clip0_4140_689)">
<path d="M11.8206 0.789146C11.891 0.836054 11.9418 0.896643 11.9731 0.970913C12.0044 1.04518 12.0122 1.12532 11.9965 1.21131L10.2844 11.5075C10.2766 11.57 10.2532 11.6267 10.2141 11.6775C10.175 11.7283 10.1281 11.7733 10.0733 11.8124C10.0421 11.828 10.0088 11.8397 9.97367 11.8475C9.93849 11.8554 9.90135 11.8593 9.86226 11.8593C9.83881 11.8593 9.8134 11.8573 9.78604 11.8534C9.75868 11.8495 9.72936 11.8397 9.69809 11.8241L6.67257 10.5928L5.04254 12.5629C5.00345 12.6176 4.95459 12.6567 4.89595 12.6802C4.83732 12.7036 4.77673 12.7153 4.71419 12.7153C4.69073 12.7153 4.66728 12.7134 4.64382 12.7095C4.62037 12.7056 4.59692 12.6997 4.57346 12.6919C4.48747 12.6606 4.41906 12.6078 4.36824 12.5336C4.31743 12.4593 4.29202 12.3792 4.29202 12.2932V9.9478L10.0733 2.85307L2.91998 9.05656L0.269717 7.96597C0.191538 7.93469 0.128995 7.88583 0.0820878 7.81938C0.0351805 7.75293 0.00781789 7.68061 0 7.60243C0 7.51644 0.0175902 7.43826 0.0527707 7.3679C0.0879512 7.29754 0.140722 7.24281 0.211083 7.20372L11.3633 0.765693C11.3946 0.750057 11.4297 0.736376 11.4688 0.724649C11.5079 0.712922 11.5431 0.707059 11.5744 0.707059C11.6213 0.707059 11.6662 0.714877 11.7092 0.730513C11.7522 0.746148 11.7894 0.765693 11.8206 0.789146Z" fill="white"/>
</g>
<defs>
<clipPath id="clip0_4140_689">
<rect width="12.02" height="13" fill="white" transform="matrix(1 0 0 -1 0 13)"/>
</clipPath>
</defs>
</svg>
