<svg width="70" height="70" viewBox="0 0 70 70" fill="none" xmlns="http://www.w3.org/2000/svg">
<rect width="70" height="70" rx="7" fill="#C5CE38"/>
<path d="M58.4375 38.0762C58.4375 36.3835 58.0469 34.7721 57.2656 33.2422C56.4844 31.7122 55.4102 30.4264 54.043 29.3848C53.75 29.1895 53.4326 29.0348 53.0908 28.9209C52.749 28.807 52.3991 28.75 52.041 28.75C51.6178 28.75 51.2028 28.8314 50.7959 28.9941C50.389 29.1569 50.0391 29.3848 49.7461 29.6777C49.681 29.6452 49.624 29.6045 49.5752 29.5557C49.5264 29.5068 49.4694 29.4661 49.4043 29.4336C49.209 29.2383 48.9811 29.0918 48.7207 28.9941C48.4603 28.8965 48.1999 28.8314 47.9395 28.7988L48.2812 25.0391C48.2812 24.974 48.2812 24.917 48.2812 24.8682C48.2812 24.8193 48.2812 24.7786 48.2812 24.7461C48.2812 23.8997 47.9883 23.1836 47.4023 22.5977C46.8164 22.0117 46.1003 21.7188 45.2539 21.7188H45.0586C44.2122 21.7188 43.4961 22.0117 42.9102 22.5977C42.3242 23.1836 42.0312 23.8997 42.0312 24.7461C42.0312 24.7786 42.0312 24.8193 42.0312 24.8682C42.0312 24.917 42.0312 24.974 42.0312 25.0391L42.373 28.7988C42.1452 28.8639 41.9092 28.9453 41.665 29.043C41.4209 29.1406 41.2012 29.2546 41.0059 29.3848C40.9408 29.4499 40.8757 29.515 40.8105 29.5801C40.7454 29.6452 40.6803 29.694 40.6152 29.7266C40.5827 29.694 40.5501 29.6615 40.5176 29.6289C40.485 29.5964 40.4362 29.5638 40.3711 29.5312C40.4036 29.401 40.4281 29.2708 40.4443 29.1406C40.4606 29.0104 40.4688 28.8802 40.4688 28.75C40.4688 28.2617 40.3955 27.7816 40.249 27.3096C40.1025 26.8376 39.8828 26.4062 39.5898 26.0156C39.8828 25.625 40.1025 25.1937 40.249 24.7217C40.3955 24.2497 40.4688 23.7695 40.4688 23.2812C40.4688 21.9466 39.9805 20.8154 39.0039 19.8877C38.0273 18.96 36.8555 18.5286 35.4883 18.5938C35.2604 17.8776 34.8698 17.2591 34.3164 16.7383C33.763 16.2174 33.1283 15.8594 32.4121 15.6641C31.9238 15.0781 31.3379 14.6305 30.6543 14.3213C29.9707 14.012 29.2383 13.8737 28.457 13.9062C28.1315 12.9948 27.57 12.2461 26.7725 11.6602C25.9749 11.0742 25.0716 10.7812 24.0625 10.7812C23.2161 10.7812 22.4349 10.9928 21.7188 11.416C21.0026 11.8392 20.4329 12.4089 20.0098 13.125C18.9681 13.1576 18.0404 13.5075 17.2266 14.1748C16.4128 14.8421 15.8757 15.6641 15.6152 16.6406C14.4108 17.0964 13.4342 17.8613 12.6855 18.9355C11.9368 20.0098 11.5625 21.1979 11.5625 22.5C11.5625 23.5417 11.8066 24.5182 12.2949 25.4297C12.7832 26.3411 13.4505 27.0898 14.2969 27.6758C14.1667 27.9688 14.069 28.2699 14.0039 28.5791C13.9388 28.8883 13.9062 29.2057 13.9062 29.5312C13.9062 30.2474 14.0527 30.9147 14.3457 31.5332C14.6387 32.1517 15.0618 32.6888 15.6152 33.1445C15.5501 33.3073 15.5094 33.4782 15.4932 33.6572C15.4769 33.8363 15.4688 34.0234 15.4688 34.2188C15.4688 35.4232 15.8675 36.4648 16.665 37.3438C17.4626 38.2227 18.431 38.7272 19.5703 38.8574L21.3281 43.6914C20.8724 44.0169 20.4574 44.3831 20.083 44.79C19.7087 45.1969 19.375 45.6445 19.082 46.1328L15.0293 45.2051C14.9316 45.2051 14.8421 45.1969 14.7607 45.1807C14.6794 45.1644 14.6061 45.1562 14.541 45.1562C13.9225 45.1562 13.4017 45.3678 12.9785 45.791C12.5553 46.2142 12.3438 46.735 12.3438 47.3535V47.6465C12.3438 47.7767 12.3519 47.8906 12.3682 47.9883C12.3844 48.0859 12.4089 48.1836 12.4414 48.2812H12.3438C11.6927 48.2812 11.1393 48.5091 10.6836 48.9648C10.2279 49.4206 10 49.974 10 50.625C10 51.276 10.2279 51.8294 10.6836 52.2852C11.1393 52.7409 11.6927 52.9688 12.3438 52.9688H12.4414C12.4089 53.0664 12.3844 53.1641 12.3682 53.2617C12.3519 53.3594 12.3438 53.4733 12.3438 53.6035V53.8965C12.3438 54.515 12.5553 55.0358 12.9785 55.459C13.4017 55.8822 13.9225 56.0938 14.541 56.0938C14.6061 56.0938 14.6794 56.0856 14.7607 56.0693C14.8421 56.0531 14.9316 56.0449 15.0293 56.0449L19.082 55.1172C19.8633 56.3542 20.8968 57.347 22.1826 58.0957C23.4684 58.8444 24.8763 59.2188 26.4062 59.2188H26.6016C26.7969 59.2188 27.0085 59.2106 27.2363 59.1943C27.4642 59.1781 27.6921 59.1536 27.9199 59.1211L54.6777 55.0195C55.7845 54.8242 56.6878 54.3197 57.3877 53.5059C58.0876 52.6921 58.4375 51.7318 58.4375 50.625C58.4375 49.7461 58.2015 48.9486 57.7295 48.2324C57.2575 47.5163 56.6471 46.9792 55.8984 46.6211C56.7122 45.6771 57.3389 44.611 57.7783 43.4229C58.2178 42.2347 58.4375 41.0059 58.4375 39.7363V38.0762ZM48.4766 30.6543C49.6484 31.5332 50.5599 32.6481 51.2109 33.999C51.862 35.3499 52.1875 36.7741 52.1875 38.2715V41.1035C52.1875 41.9173 52.0898 42.7067 51.8945 43.4717C51.6992 44.2367 51.4062 44.9772 51.0156 45.6934L44.7656 44.7168C44.6354 44.1634 44.5378 43.5938 44.4727 43.0078C44.4076 42.4219 44.375 41.8359 44.375 41.25V38.125C44.375 37.7018 44.3913 37.2949 44.4238 36.9043C44.4564 36.5137 44.5052 36.123 44.5703 35.7324C44.668 35.765 44.7656 35.7812 44.8633 35.7812C44.9609 35.7812 45.0586 35.7812 45.1562 35.7812C46.263 35.7812 47.1908 35.5615 47.9395 35.1221C48.6882 34.6826 49.0625 34.1211 49.0625 33.4375C49.0625 33.0794 48.9404 32.7376 48.6963 32.4121C48.4521 32.0866 48.1022 31.8262 47.6465 31.6309L47.793 30.3613C47.9232 30.3939 48.0452 30.4346 48.1592 30.4834C48.2731 30.5322 48.3789 30.5892 48.4766 30.6543ZM45.0586 23.2812H45.2539C45.6445 23.2812 45.9863 23.4277 46.2793 23.7207C46.5723 24.0137 46.7188 24.3555 46.7188 24.7461C46.7188 24.7786 46.7188 24.8031 46.7188 24.8193C46.7188 24.8356 46.7188 24.86 46.7188 24.8926L45.9863 32.6562L46.6211 32.8516C46.9466 32.9818 47.1745 33.1038 47.3047 33.2178C47.4349 33.3317 47.5 33.4049 47.5 33.4375C47.5 33.5352 47.2966 33.6898 46.8896 33.9014C46.4827 34.113 45.9049 34.2188 45.1562 34.2188C44.4076 34.2188 43.8298 34.113 43.4229 33.9014C43.0159 33.6898 42.8125 33.5352 42.8125 33.4375C42.8125 33.4049 42.8776 33.3317 43.0078 33.2178C43.138 33.1038 43.3659 32.9818 43.6914 32.8516L44.3262 32.6562L43.5938 24.8926C43.5938 24.86 43.5938 24.8356 43.5938 24.8193C43.5938 24.8031 43.5938 24.7786 43.5938 24.7461C43.5938 24.3555 43.7402 24.0137 44.0332 23.7207C44.3262 23.4277 44.668 23.2812 45.0586 23.2812ZM42.5195 30.3613L42.666 31.6309C42.2103 31.8262 41.8604 32.0866 41.6162 32.4121C41.3721 32.7376 41.25 33.0794 41.25 33.4375C41.25 33.8607 41.4128 34.2432 41.7383 34.585C42.0638 34.9268 42.5033 35.2116 43.0566 35.4395C42.9915 35.8626 42.9346 36.3021 42.8857 36.7578C42.8369 37.2135 42.8125 37.6693 42.8125 38.125V41.25C42.8125 41.8034 42.8369 42.3486 42.8857 42.8857C42.9346 43.4229 43.0078 43.9518 43.1055 44.4727L38.5156 43.7402C38.3854 43.3171 38.2878 42.8857 38.2227 42.4463C38.1576 42.0068 38.125 41.5592 38.125 41.1035V38.2715C38.125 36.7741 38.4587 35.3499 39.126 33.999C39.7933 32.6481 40.7292 31.5332 41.9336 30.6543C42.0312 30.5892 42.1289 30.5322 42.2266 30.4834C42.3242 30.4346 42.4219 30.3939 42.5195 30.3613ZM34.0723 43.1055C33.877 42.5521 33.7223 41.9987 33.6084 41.4453C33.4945 40.8919 33.4375 40.3223 33.4375 39.7363V38.0762C33.4375 36.6439 33.7712 35.2686 34.4385 33.9502C35.1058 32.6318 36.0254 31.5332 37.1973 30.6543C37.36 30.5566 37.5309 30.4753 37.71 30.4102C37.889 30.3451 38.0762 30.3125 38.2715 30.3125C38.4993 30.3125 38.7191 30.3613 38.9307 30.459C39.1423 30.5566 39.3294 30.6706 39.4922 30.8008C38.5482 31.8099 37.8239 32.9574 37.3193 34.2432C36.8148 35.529 36.5625 36.8717 36.5625 38.2715V41.1035C36.5625 41.5267 36.5869 41.9336 36.6357 42.3242C36.6846 42.7148 36.7578 43.1055 36.8555 43.4961L34.0723 43.1055ZM34.1699 19.6191L34.3164 20.4004L35.0977 20.2539C35.2279 20.2214 35.3499 20.1969 35.4639 20.1807C35.5778 20.1644 35.6836 20.1562 35.7812 20.1562C36.6276 20.1562 37.36 20.4655 37.9785 21.084C38.597 21.7025 38.9062 22.4349 38.9062 23.2812C38.9062 23.7044 38.833 24.1032 38.6865 24.4775C38.54 24.8519 38.3203 25.1855 38.0273 25.4785L37.4902 26.0156L38.0273 26.5527C38.3203 26.8457 38.54 27.1794 38.6865 27.5537C38.833 27.9281 38.9062 28.3268 38.9062 28.75C38.9062 28.75 38.9062 28.7581 38.9062 28.7744C38.9062 28.7907 38.9062 28.7988 38.9062 28.7988C38.8086 28.7988 38.7028 28.7907 38.5889 28.7744C38.4749 28.7581 38.3691 28.75 38.2715 28.75C37.9134 28.75 37.5635 28.807 37.2217 28.9209C36.8799 29.0348 36.5625 29.1895 36.2695 29.3848C35.5859 29.9056 34.9593 30.5078 34.3896 31.1914C33.82 31.875 33.3561 32.5911 32.998 33.3398C32.8353 32.8841 32.6807 32.4365 32.5342 31.9971C32.3877 31.5576 32.2331 31.1263 32.0703 30.7031C32.4284 28.8151 33.0876 27.3421 34.0479 26.2842C35.0081 25.2262 35.4883 24.681 35.4883 24.6484L35 24.0625L34.5117 23.4766C34.4466 23.5091 34.0072 23.9486 33.1934 24.7949C32.3796 25.6413 31.6797 26.8294 31.0938 28.3594C30.2799 26.5039 29.5475 25.0146 28.8965 23.8916C28.2454 22.7686 27.8874 22.1582 27.8223 22.0605L26.5527 22.9395C26.5527 22.9395 26.805 23.3789 27.3096 24.2578C27.8141 25.1367 28.4245 26.3249 29.1406 27.8223C27.9688 27.3665 26.8376 27.1468 25.7471 27.1631C24.6566 27.1794 24.0625 27.1875 23.9648 27.1875L24.1602 28.75C24.7461 28.6849 25.7064 28.7256 27.041 28.8721C28.3757 29.0186 29.4336 29.4824 30.2148 30.2637C30.4753 30.9473 30.7357 31.6553 30.9961 32.3877C31.2565 33.1201 31.5169 33.877 31.7773 34.6582C30.5729 34.0723 29.3929 33.7223 28.2373 33.6084C27.0817 33.4945 26.4714 33.4375 26.4062 33.4375V35C26.4388 35 27.1224 35.0732 28.457 35.2197C29.7917 35.3662 30.9635 35.8464 31.9727 36.6602C31.9401 36.888 31.9157 37.124 31.8994 37.3682C31.8831 37.6123 31.875 37.8483 31.875 38.0762V39.7363C31.875 40.2572 31.9157 40.778 31.9971 41.2988C32.0785 41.8197 32.2005 42.3242 32.3633 42.8125L27.9199 42.1289C27.7897 42.1289 27.6676 42.1208 27.5537 42.1045C27.4398 42.0882 27.3177 42.0638 27.1875 42.0312C26.3411 42.0312 25.6087 41.7301 24.9902 41.1279C24.3717 40.5257 24.0625 39.7852 24.0625 38.9062C24.0625 38.7109 24.0788 38.5238 24.1113 38.3447C24.1439 38.1657 24.1927 37.9785 24.2578 37.7832L24.502 37.1973L23.9648 36.8555C23.5091 36.5625 23.151 36.18 22.8906 35.708C22.6302 35.236 22.5 34.7396 22.5 34.2188C22.5 33.9258 22.5407 33.6328 22.6221 33.3398C22.7035 33.0469 22.8418 32.7702 23.0371 32.5098L23.5254 31.7773L22.7441 31.3867C21.9303 30.9635 21.2956 30.3776 20.8398 29.6289C20.3841 28.8802 20.1562 28.0664 20.1562 27.1875C20.1562 26.1458 20.4736 25.21 21.1084 24.3799C21.7432 23.5498 22.5651 22.9883 23.5742 22.6953L24.0625 22.5488L24.1113 22.0605C24.209 21.2793 24.5508 20.6364 25.1367 20.1318C25.7227 19.6273 26.4062 19.375 27.1875 19.375C27.1875 19.375 27.1956 19.375 27.2119 19.375C27.2282 19.375 27.2526 19.375 27.2852 19.375C27.3177 19.375 27.3421 19.3831 27.3584 19.3994C27.3747 19.4157 27.3991 19.4238 27.4316 19.4238L28.0176 19.4727L28.2129 18.9355C28.4733 18.3496 28.8639 17.8857 29.3848 17.5439C29.9056 17.2021 30.4753 17.0312 31.0938 17.0312C31.8424 17.0312 32.5098 17.2754 33.0957 17.7637C33.6816 18.252 34.0397 18.8704 34.1699 19.6191ZM20.6934 37.3438H20.1562C19.3099 37.3438 18.5775 37.0345 17.959 36.416C17.3405 35.7975 17.0312 35.0651 17.0312 34.2188C17.0312 34.0234 17.0475 33.8363 17.0801 33.6572C17.1126 33.4782 17.1615 33.291 17.2266 33.0957L17.4707 32.5098L16.9336 32.168C16.4779 31.875 16.1198 31.4925 15.8594 31.0205C15.599 30.5485 15.4688 30.0521 15.4688 29.5312C15.4688 29.2383 15.5094 28.9453 15.5908 28.6523C15.6722 28.3594 15.8105 28.0827 16.0059 27.8223L16.4941 27.0898L15.7129 26.6992C14.8991 26.276 14.2643 25.6901 13.8086 24.9414C13.3529 24.1927 13.125 23.3789 13.125 22.5C13.125 21.4583 13.4424 20.5225 14.0771 19.6924C14.7119 18.8623 15.5339 18.3008 16.543 18.0078L17.0312 17.8613L17.0801 17.373C17.1777 16.5918 17.5195 15.9489 18.1055 15.4443C18.6914 14.9398 19.375 14.6875 20.1562 14.6875C20.1562 14.6875 20.1644 14.6875 20.1807 14.6875C20.1969 14.6875 20.2214 14.6875 20.2539 14.6875C20.2865 14.6875 20.3109 14.6956 20.3271 14.7119C20.3434 14.7282 20.3678 14.7363 20.4004 14.7363L20.9863 14.7852L21.1816 14.248C21.4421 13.6621 21.8327 13.1982 22.3535 12.8564C22.8743 12.5146 23.444 12.3438 24.0625 12.3438C24.8112 12.3438 25.4785 12.5879 26.0645 13.0762C26.6504 13.5645 27.0085 14.1829 27.1387 14.9316L27.2852 15.7129L28.0664 15.5664C28.1966 15.5339 28.3187 15.5094 28.4326 15.4932C28.5465 15.4769 28.6523 15.4688 28.75 15.4688C28.9453 15.4688 29.1243 15.485 29.2871 15.5176C29.4499 15.5501 29.6126 15.599 29.7754 15.6641C29.1895 15.8268 28.6605 16.0954 28.1885 16.4697C27.7165 16.8441 27.334 17.2917 27.041 17.8125C25.9993 17.8451 25.0716 18.195 24.2578 18.8623C23.444 19.5296 22.9069 20.3516 22.6465 21.3281C21.4421 21.7839 20.4655 22.5488 19.7168 23.623C18.9681 24.6973 18.5938 25.8854 18.5938 27.1875C18.5938 28.2292 18.8379 29.2057 19.3262 30.1172C19.8145 31.0286 20.4818 31.7773 21.3281 32.3633C21.1979 32.6562 21.1003 32.9574 21.0352 33.2666C20.9701 33.5758 20.9375 33.8932 20.9375 34.2188C20.9375 34.9349 21.084 35.6022 21.377 36.2207C21.6699 36.8392 22.0931 37.3763 22.6465 37.832C22.5814 37.9948 22.5407 38.1657 22.5244 38.3447C22.5081 38.5238 22.5 38.7109 22.5 38.9062C22.5 39.5898 22.6383 40.2327 22.915 40.835C23.1917 41.4372 23.5579 41.9499 24.0137 42.373C23.7858 42.4382 23.5579 42.5114 23.3301 42.5928C23.1022 42.6742 22.8906 42.7799 22.6953 42.9102L20.6934 37.3438ZM13.9062 47.6465V47.3535C13.9062 47.1582 13.9876 46.9954 14.1504 46.8652C14.3132 46.735 14.4922 46.6862 14.6875 46.7188L18.3984 47.5488C18.3333 47.679 18.2845 47.8011 18.252 47.915C18.2194 48.029 18.1868 48.151 18.1543 48.2812H14.541C14.3783 48.2812 14.2318 48.2161 14.1016 48.0859C13.9714 47.9557 13.9062 47.8092 13.9062 47.6465ZM11.5625 50.625C11.5625 50.3971 11.6357 50.21 11.7822 50.0635C11.9287 49.917 12.1159 49.8438 12.3438 49.8438H17.8613C17.8288 49.974 17.8125 50.1042 17.8125 50.2344C17.8125 50.3646 17.8125 50.4948 17.8125 50.625C17.8125 50.7552 17.8125 50.8854 17.8125 51.0156C17.8125 51.1458 17.8288 51.276 17.8613 51.4062H12.3438C12.1159 51.4062 11.9287 51.333 11.7822 51.1865C11.6357 51.04 11.5625 50.8529 11.5625 50.625ZM14.6875 54.5312C14.4922 54.5638 14.3132 54.515 14.1504 54.3848C13.9876 54.2546 13.9062 54.0918 13.9062 53.8965V53.6035C13.9062 53.4408 13.9714 53.2943 14.1016 53.1641C14.2318 53.0339 14.3783 52.9688 14.541 52.9688H18.1543C18.1868 53.099 18.2194 53.221 18.252 53.335C18.2845 53.4489 18.3333 53.571 18.3984 53.7012L14.6875 54.5312ZM56.875 50.625C56.875 51.3411 56.6471 51.9678 56.1914 52.5049C55.7357 53.042 55.1497 53.3594 54.4336 53.457L27.6758 57.5586C27.4805 57.5911 27.2933 57.6156 27.1143 57.6318C26.9352 57.6481 26.7643 57.6562 26.6016 57.6562H26.4062C24.4531 57.6562 22.793 56.9727 21.4258 55.6055C20.0586 54.2383 19.375 52.5781 19.375 50.625C19.375 48.6719 20.0586 47.0117 21.4258 45.6445C22.793 44.2773 24.4531 43.5938 26.4062 43.5938H26.6016C26.7643 43.5938 26.9352 43.6019 27.1143 43.6182C27.2933 43.6344 27.4805 43.6589 27.6758 43.6914L54.4336 47.793C55.1497 47.8906 55.7357 48.208 56.1914 48.7451C56.6471 49.2822 56.875 49.9089 56.875 50.625ZM56.875 39.7363C56.875 40.9408 56.639 42.0964 56.167 43.2031C55.695 44.3099 55.0358 45.3027 54.1895 46.1816L52.6758 45.9375C53.0339 45.1888 53.3024 44.4076 53.4814 43.5938C53.6605 42.7799 53.75 41.9499 53.75 41.1035V38.2715C53.75 36.8717 53.4977 35.529 52.9932 34.2432C52.4886 32.9574 51.7806 31.8099 50.8691 30.8008C51.0319 30.638 51.2109 30.516 51.4062 30.4346C51.6016 30.3532 51.8132 30.3125 52.041 30.3125C52.2363 30.3125 52.4235 30.3451 52.6025 30.4102C52.7816 30.4753 52.9525 30.5566 53.1152 30.6543C54.2871 31.5332 55.2067 32.6318 55.874 33.9502C56.5413 35.2686 56.875 36.6439 56.875 38.0762V39.7363ZM25.625 46.7188H27.1875V54.5312H25.625V46.7188ZM31.875 46.7188H33.4375V54.5312H31.875V46.7188ZM38.125 46.7188H39.6875V54.5312H38.125V46.7188ZM44.375 48.2812H45.9375V52.9688H44.375V48.2812ZM50.625 49.0625H52.1875V52.1875H50.625V49.0625Z" fill="white"/>
</svg>
