<svg width="13" height="20" viewBox="0 0 13 20" fill="none" xmlns="http://www.w3.org/2000/svg">
<g clip-path="url(#clip0_4138_728)">
<path d="M6.295 3.70492C7.16649 3.70492 7.98297 3.86991 8.74447 4.19989C9.50596 4.52987 10.1723 4.98042 10.7434 5.55154C11.3145 6.12266 11.765 6.78896 12.095 7.55046C12.425 8.31195 12.59 9.12844 12.59 9.99992C12.59 10.8714 12.425 11.6879 12.095 12.4494C11.765 13.2109 11.3145 13.8772 10.7434 14.4483C10.1723 15.0194 9.50596 15.47 8.74447 15.8C7.98297 16.1299 7.16649 16.2949 6.295 16.2949C5.42351 16.2949 4.60703 16.1299 3.84553 15.8C3.08404 15.47 2.41774 15.0194 1.84662 14.4483C1.2755 13.8772 0.82495 13.2109 0.49497 12.4494C0.16499 11.6879 0 10.8714 0 9.99992C0 9.12844 0.16499 8.31195 0.49497 7.55046C0.82495 6.78896 1.2755 6.12266 1.84662 5.55154C2.41774 4.98042 3.08404 4.52987 3.84553 4.19989C4.60703 3.86991 5.42351 3.70492 6.295 3.70492ZM6.295 6.1417C5.67735 6.1417 5.15065 6.35957 4.7149 6.79531C4.27916 7.23105 4.06129 7.75775 4.06129 8.37541C4.06129 8.99306 4.27916 9.51976 4.7149 9.9555C5.15065 10.3912 5.67735 10.6091 6.295 10.6091C6.91265 10.6091 7.43935 10.3912 7.8751 9.9555C8.31084 9.51976 8.52871 8.99306 8.52871 8.37541C8.52871 7.75775 8.31084 7.23105 7.8751 6.79531C7.43935 6.35957 6.91265 6.1417 6.295 6.1417ZM6.295 14.8735C6.66728 14.8735 7.02688 14.8312 7.37378 14.7466C7.72914 14.6704 8.06335 14.5562 8.37641 14.4039C8.68947 14.2516 8.98561 14.0697 9.26482 13.8581C9.54403 13.6466 9.79363 13.4097 10.0136 13.1474C9.77671 12.699 9.43615 12.333 8.99195 12.0496C8.54775 11.7662 8.05489 11.6244 7.51339 11.6244C7.47954 11.6244 7.44781 11.6266 7.4182 11.6308C7.38859 11.635 7.36109 11.6414 7.33571 11.6498C7.16649 11.7006 6.99515 11.7429 6.8217 11.7767C6.64825 11.8106 6.47268 11.8275 6.295 11.8275C6.11732 11.8275 5.94175 11.8106 5.7683 11.7767C5.59485 11.7429 5.42351 11.7006 5.25429 11.6498C5.22891 11.6414 5.20141 11.635 5.1718 11.6308C5.14219 11.6266 5.11046 11.6244 5.07661 11.6244C4.53511 11.6244 4.04225 11.7662 3.59805 12.0496C3.15385 12.333 2.81329 12.699 2.57638 13.1474C2.79637 13.4097 3.04597 13.6466 3.32518 13.8581C3.6044 14.0697 3.90053 14.2516 4.21359 14.4039C4.52665 14.5562 4.86086 14.6704 5.21622 14.7466C5.56312 14.8312 5.92272 14.8735 6.295 14.8735Z" fill="#EEC044"/>
</g>
<defs>
<clipPath id="clip0_4138_728">
<rect width="12.59" height="20" fill="white" transform="matrix(1 0 0 -1 0 20)"/>
</clipPath>
</defs>
</svg>
