<svg width="70" height="70" viewBox="0 0 70 70" fill="none" xmlns="http://www.w3.org/2000/svg">
<rect width="70" height="70" rx="7" fill="#C5CE38"/>
<path d="M17.2754 42.5684C17.6009 42.8939 17.9671 43.1462 18.374 43.3252C18.7809 43.5042 19.2285 43.5938 19.7168 43.5938H20.5957C21.084 43.5938 21.5316 43.5042 21.9385 43.3252C22.3454 43.1462 22.7116 42.8939 23.0371 42.5684C23.3626 42.2428 23.6149 41.8766 23.7939 41.4697C23.973 41.0628 24.0625 40.6152 24.0625 40.127C24.0625 39.4108 23.9811 38.7028 23.8184 38.0029C23.6556 37.3031 23.4115 36.6276 23.0859 35.9766L20.8398 31.5332C20.7096 31.2728 20.4818 31.1426 20.1562 31.1426C19.8307 31.1426 19.6029 31.2728 19.4727 31.5332L17.2266 35.9766C16.901 36.6276 16.6569 37.3031 16.4941 38.0029C16.3314 38.7028 16.25 39.4108 16.25 40.127C16.25 40.6152 16.3395 41.0628 16.5186 41.4697C16.6976 41.8766 16.9499 42.2428 17.2754 42.5684ZM18.6426 36.6602L20.1562 33.6328L21.6699 36.6602C21.9303 37.2135 22.1338 37.7832 22.2803 38.3691C22.4268 38.9551 22.5 39.541 22.5 40.127C22.5 40.3874 22.4512 40.6315 22.3535 40.8594C22.2559 41.0872 22.1257 41.2988 21.9629 41.4941C21.7676 41.6569 21.556 41.7871 21.3281 41.8848C21.1003 41.9824 20.8561 42.0312 20.5957 42.0312H19.7168C19.4564 42.0312 19.2122 41.9824 18.9844 41.8848C18.7565 41.7871 18.5449 41.6569 18.3496 41.4941C18.1868 41.2988 18.0566 41.0872 17.959 40.8594C17.8613 40.6315 17.8125 40.3874 17.8125 40.127C17.8125 39.541 17.8857 38.9551 18.0322 38.3691C18.1787 37.7832 18.3822 37.2135 18.6426 36.6602ZM44.375 43.5938H45.9375V51.4062H44.375V43.5938ZM44.375 52.9688H45.9375V54.5312H44.375V52.9688ZM56.0938 51.4062H49.0625V31.875C49.0625 31.6471 48.9893 31.46 48.8428 31.3135C48.6963 31.167 48.5091 31.0938 48.2812 31.0938H36.5625V19.375C36.5625 19.2773 36.5462 19.1797 36.5137 19.082C36.4811 18.9844 36.416 18.903 36.3184 18.8379L33.4375 15.9082V11.5625C33.4375 11.3346 33.3643 11.1475 33.2178 11.001C33.0713 10.8545 32.8841 10.7812 32.6562 10.7812H13.9062C13.6784 10.7812 13.4912 10.8545 13.3447 11.001C13.1982 11.1475 13.125 11.3346 13.125 11.5625V15.9082L10.2441 18.8379C10.1465 18.903 10.0814 18.9844 10.0488 19.082C10.0163 19.1797 10 19.2773 10 19.375V55.3125C10 55.5404 10.0732 55.7275 10.2197 55.874C10.3662 56.0205 10.5534 56.0938 10.7812 56.0938H31.9727C32.1354 56.9727 32.5749 57.7132 33.291 58.3154C34.0072 58.9176 34.8372 59.2188 35.7812 59.2188H51.4062C52.0573 59.2188 52.6107 58.9909 53.0664 58.5352C53.5221 58.0794 53.75 57.526 53.75 56.875C53.75 56.6471 53.8232 56.46 53.9697 56.3135C54.1162 56.167 54.3034 56.0938 54.5312 56.0938H56.0938C56.7448 56.0938 57.2982 55.8659 57.7539 55.4102C58.2096 54.9544 58.4375 54.401 58.4375 53.75C58.4375 53.099 58.2096 52.5456 57.7539 52.0898C57.2982 51.6341 56.7448 51.4062 56.0938 51.4062ZM47.5 39.4922C47.207 39.2969 46.9059 39.1504 46.5967 39.0527C46.2874 38.9551 45.9538 38.9062 45.5957 38.9062H44.7168C44.2285 38.9062 43.7809 38.9958 43.374 39.1748C42.9671 39.3538 42.6009 39.6061 42.2754 39.9316C42.0801 40.0944 41.8685 40.2246 41.6406 40.3223C41.4128 40.4199 41.1686 40.4688 40.9082 40.4688H40.0293C39.7689 40.4688 39.5247 40.4199 39.2969 40.3223C39.069 40.2246 38.8574 40.0944 38.6621 39.9316C38.3366 39.6061 37.9704 39.3538 37.5635 39.1748C37.1566 38.9958 36.709 38.9062 36.2207 38.9062H35.3418C34.9837 38.9062 34.6501 38.9551 34.3408 39.0527C34.0316 39.1504 33.7305 39.2969 33.4375 39.4922V32.6562H47.5V39.4922ZM35 31.0938H32.6562C32.4284 31.0938 32.2412 31.167 32.0947 31.3135C31.9482 31.46 31.875 31.6471 31.875 31.875V54.5312H30.3125V19.7168L32.6562 17.373L35 19.7168V31.0938ZM14.248 17.0312H30.752L29.1895 18.5938H12.6855L14.248 17.0312ZM28.75 20.1562V26.4062H11.5625V20.1562H28.75ZM28.75 27.9688V46.7188H11.5625V27.9688H28.75ZM14.6875 12.3438H31.875V15.4688H14.6875V12.3438ZM11.5625 54.5312V48.2812H28.75V54.5312H11.5625ZM35.7812 57.6562C35.1302 57.6562 34.5768 57.4284 34.1211 56.9727C33.6654 56.5169 33.4375 55.9635 33.4375 55.3125V41.5918L33.9746 41.0059C34.1699 40.8431 34.3815 40.7129 34.6094 40.6152C34.8372 40.5176 35.0814 40.4688 35.3418 40.4688H36.2207C36.4811 40.4688 36.7253 40.5176 36.9531 40.6152C37.181 40.7129 37.3926 40.8431 37.5879 41.0059C37.9134 41.3314 38.2796 41.5837 38.6865 41.7627C39.0934 41.9417 39.541 42.0312 40.0293 42.0312H40.9082C41.3965 42.0312 41.8441 41.9417 42.251 41.7627C42.6579 41.5837 43.0241 41.3314 43.3496 41.0059C43.5449 40.8431 43.7565 40.7129 43.9844 40.6152C44.2122 40.5176 44.4564 40.4688 44.7168 40.4688H45.5957C45.8561 40.4688 46.1003 40.5176 46.3281 40.6152C46.556 40.7129 46.7676 40.8431 46.9629 41.0059L47.5 41.5918V55.3125C47.5 55.9635 47.2721 56.5169 46.8164 56.9727C46.3607 57.4284 45.8073 57.6562 45.1562 57.6562H35.7812ZM56.0938 54.5312H54.5312C53.8802 54.5312 53.3268 54.7591 52.8711 55.2148C52.4154 55.6706 52.1875 56.224 52.1875 56.875C52.1875 57.1029 52.1143 57.29 51.9678 57.4365C51.8213 57.583 51.6341 57.6562 51.4062 57.6562H48.2812C48.5091 57.3307 48.6963 56.9727 48.8428 56.582C48.9893 56.1914 49.0625 55.7682 49.0625 55.3125V52.9688H56.0938C56.3216 52.9688 56.5088 53.042 56.6553 53.1885C56.8018 53.335 56.875 53.5221 56.875 53.75C56.875 53.9779 56.8018 54.165 56.6553 54.3115C56.5088 54.458 56.3216 54.5312 56.0938 54.5312Z" fill="white"/>
</svg>
