<svg width="84" height="85" viewBox="0 0 84 85" fill="none" xmlns="http://www.w3.org/2000/svg">
<path d="M82.7695 81.875H80.0625C79.8984 80.9453 79.5293 80.1113 78.9551 79.373C78.3809 78.6348 77.6836 78.0742 76.8633 77.6914C76.2617 77.418 75.6738 77.2539 75.0996 77.1992C74.5254 77.1445 74.0195 77.1445 73.582 77.1992C73.3633 76.4336 73.0078 75.75 72.5156 75.1484C72.0234 74.5469 71.4219 74.082 70.7109 73.7539C70.0547 73.4258 69.4121 73.2617 68.7832 73.2617C68.1543 73.2617 67.6211 73.2891 67.1836 73.3438C67.1836 73.2891 67.1836 72.5234 67.1836 71.0469C67.1836 69.5703 67.1836 67.9707 67.1836 66.248C67.1836 64.5254 67.1836 62.9531 67.1836 61.5312C67.1836 60.0547 67.1836 59.3164 67.1836 59.3164L71.2852 55.2148H74.8125C77.0547 55.2148 78.9688 54.4219 80.5547 52.8359C82.1406 51.25 82.9336 49.3359 82.9336 47.0938V43.7305C82.9336 43.2383 82.7422 42.8008 82.3594 42.418C81.9766 42.0352 81.5391 41.8438 81.0469 41.8438H77.6836C75.4414 41.8438 73.5273 42.6504 71.9414 44.2637C70.3555 45.877 69.5625 47.8047 69.5625 50.0469V53.4922L67.1836 55.8711V41.7617L69.6445 39.3008C71.2305 37.7148 72.0234 35.8008 72.0234 33.5586C72.0234 31.3164 71.2305 29.4023 69.6445 27.8164L67.2656 25.4375C67.1016 25.2734 66.9102 25.1367 66.6914 25.0273C66.4727 24.918 66.2266 24.8633 65.9531 24.8633C65.6797 24.8633 65.4336 24.918 65.2148 25.0273C64.9961 25.1367 64.8047 25.2734 64.6406 25.4375L62.2617 27.8164C60.6758 29.4023 59.8828 31.3164 59.8828 33.5586C59.8828 35.8008 60.6758 37.7148 62.2617 39.3008L64.7227 41.7617V63.2539L62.3438 60.875V55.7891C62.3438 52.7812 61.2773 50.2109 59.1445 48.0781C57.0117 45.9453 54.4414 44.8789 51.4336 44.8789H46.5117C45.9648 44.8789 45.5137 45.0566 45.1582 45.4121C44.8027 45.7676 44.625 46.2188 44.625 46.7656V51.6875C44.625 54.6953 45.6914 57.2656 47.8242 59.3984C49.957 61.5312 52.5273 62.5977 55.5352 62.5977H60.6211L64.7227 66.6992V71.2109C63.793 70.3359 62.6035 69.502 61.1543 68.709C59.7051 67.916 58.0234 67.4648 56.1094 67.3555C56.0547 67.3555 55.8633 67.3418 55.5352 67.3145C55.207 67.2871 54.7969 67.3008 54.3047 67.3555C53.9219 67.3555 53.6211 67.4922 53.4023 67.7656C53.1836 68.0391 53.1016 68.3398 53.1562 68.668C53.1562 68.9961 53.293 69.2695 53.5664 69.4883C53.8398 69.707 54.1406 69.8164 54.4688 69.8164C54.9062 69.7617 55.248 69.748 55.4941 69.7754C55.7402 69.8027 55.8906 69.8164 55.9453 69.8164C58.4062 69.9805 60.3887 70.7188 61.8926 72.0312C63.3965 73.3438 64.4219 74.3828 64.9688 75.1484C65.2422 75.5312 65.584 75.791 65.9941 75.9277C66.4043 76.0645 66.8281 76.0508 67.2656 75.8867C67.5938 75.7773 67.9629 75.709 68.373 75.6816C68.7832 75.6543 69.207 75.75 69.6445 75.9688C70.082 76.1875 70.4375 76.4746 70.7109 76.8301C70.9844 77.1855 71.1758 77.6094 71.2852 78.1016C71.4492 78.6484 71.75 79.0723 72.1875 79.373C72.625 79.6738 73.1172 79.7695 73.6641 79.6602C73.9375 79.6055 74.2656 79.5781 74.6484 79.5781C75.0312 79.5781 75.4141 79.6875 75.7969 79.9062C76.1797 80.0703 76.5215 80.3301 76.8223 80.6855C77.123 81.041 77.3555 81.4375 77.5195 81.875H39.0469C39.1016 81.5469 39.2246 81.2188 39.416 80.8906C39.6074 80.5625 39.8398 80.3164 40.1133 80.1523C40.3867 79.9336 40.6738 79.8105 40.9746 79.7832C41.2754 79.7559 41.5352 79.7695 41.7539 79.8242C42.3008 79.8789 42.793 79.7422 43.2305 79.4141C43.668 79.0859 43.9414 78.6758 44.0508 78.1836C44.1602 77.418 44.3652 76.707 44.666 76.0508C44.9668 75.3945 45.3086 74.793 45.6914 74.2461C46.1836 73.5898 46.7305 73.002 47.332 72.4824C47.9336 71.9629 48.6172 71.5117 49.3828 71.1289C49.7109 70.9648 49.916 70.7188 49.998 70.3906C50.0801 70.0625 50.0664 69.7617 49.957 69.4883C49.793 69.1602 49.5469 68.9414 49.2188 68.832C48.8906 68.7227 48.5898 68.75 48.3164 68.9141C47.3867 69.4062 46.5391 69.9668 45.7734 70.5957C45.0078 71.2246 44.3242 71.9492 43.7227 72.7695C43.2305 73.4258 42.8203 74.1367 42.4922 74.9023C42.1641 75.668 41.8906 76.4609 41.6719 77.2812C41.5625 77.2812 41.4395 77.2812 41.3027 77.2812C41.166 77.2812 41.043 77.3086 40.9336 77.3633C40.7148 76.543 40.3594 75.8184 39.8672 75.1895C39.375 74.5605 38.7461 74.082 37.9805 73.7539C37.2148 73.3711 36.4766 73.1934 35.7656 73.2207C35.0547 73.248 34.4805 73.3438 34.043 73.5078C33.2773 72.4688 31.9102 71.1699 29.9414 69.6113C27.9727 68.0527 25.5117 67.2734 22.5586 67.2734V59.4805L26.7422 55.3789H30.1875C32.4297 55.3789 34.3438 54.5859 35.9297 53C37.5156 51.4141 38.3086 49.5 38.3086 47.2578V43.8945C38.3086 43.4023 38.1309 42.9648 37.7754 42.582C37.4199 42.1992 36.9688 42.0078 36.4219 42.0078H33.1406C30.8984 42.0078 28.9707 42.8145 27.3574 44.4277C25.7441 46.041 24.9375 47.9688 24.9375 50.2109V53.6562L22.5586 56.0352V37.332L26.7422 33.2305H30.1875C32.4297 33.2305 34.3438 32.4375 35.9297 30.8516C37.5156 29.2656 38.3086 27.3516 38.3086 25.1094V21.7461C38.3086 21.2539 38.1309 20.8164 37.7754 20.4336C37.4199 20.0508 36.9688 19.8594 36.4219 19.8594H33.1406C30.8984 19.8594 28.9707 20.666 27.3574 22.2793C25.7441 23.8926 24.9375 25.8203 24.9375 28.0625V31.5078L22.5586 33.8867V17.4805L25.0195 15.0195C26.6055 13.4336 27.3984 11.5195 27.3984 9.27734C27.3984 7.03516 26.6055 5.12109 25.0195 3.53516L22.7227 1.15625C22.5039 0.992188 22.2852 0.869141 22.0664 0.787109C21.8477 0.705078 21.6016 0.664062 21.3281 0.664062C21.1094 0.664062 20.877 0.705078 20.6309 0.787109C20.3848 0.869141 20.1797 0.992188 20.0156 1.15625L17.6367 3.53516C16.0508 5.12109 15.2578 7.03516 15.2578 9.27734C15.2578 11.5195 16.0508 13.4336 17.6367 15.0195L20.0977 17.4805V41.2695L17.7188 38.8906V33.8047C17.7188 32.9844 17.6367 32.1777 17.4727 31.3848C17.3086 30.5918 17.0352 29.8125 16.6523 29.0469C16.4883 28.7734 16.2559 28.582 15.9551 28.4727C15.6543 28.3633 15.3398 28.3633 15.0117 28.4727C14.7383 28.6367 14.5332 28.8828 14.3965 29.2109C14.2598 29.5391 14.2734 29.8398 14.4375 30.1133C14.7109 30.7148 14.916 31.3164 15.0527 31.918C15.1895 32.5195 15.2578 33.1484 15.2578 33.8047V36.4297L10.5 31.5898C10.2266 31.3711 9.92578 31.2617 9.59766 31.2617C9.26953 31.2617 8.96875 31.3711 8.69531 31.5898C8.47656 31.8633 8.36719 32.1641 8.36719 32.4922C8.36719 32.8203 8.47656 33.0938 8.69531 33.3125L13.5352 38.1523H10.9102C8.61328 38.1523 6.63086 37.332 4.96289 35.6914C3.29492 34.0508 2.46094 32.0547 2.46094 29.7031V25.3555H6.80859C7.57422 25.3555 8.32617 25.4512 9.06445 25.6426C9.80273 25.834 10.4727 26.1211 11.0742 26.5039C11.4023 26.668 11.7305 26.709 12.0586 26.627C12.3867 26.5449 12.6328 26.3672 12.7969 26.0938C12.9609 25.7656 13.002 25.4375 12.9199 25.1094C12.8379 24.7812 12.6602 24.5352 12.3867 24.3711C11.5117 23.8789 10.6094 23.5098 9.67969 23.2637C8.75 23.0176 7.79297 22.8945 6.80859 22.8945H1.88672C1.33984 22.8945 0.888672 23.0723 0.533203 23.4277C0.177734 23.7832 0 24.2344 0 24.7812V29.7031C0 32.7109 1.06641 35.2812 3.19922 37.4141C5.33203 39.5469 7.90234 40.6133 10.9102 40.6133H15.9961L20.0977 44.7148V65.8789L18.5391 64.3203V59.9727C18.5391 57.3477 17.6094 55.0918 15.75 53.2051C13.8906 51.3184 11.6211 50.375 8.94141 50.375H4.75781C4.26562 50.375 3.82812 50.5664 3.44531 50.9492C3.0625 51.332 2.87109 51.7695 2.87109 52.2617V56.4453C2.87109 59.0703 3.81445 61.3262 5.70117 63.2129C7.58789 65.0996 9.87109 66.043 12.5508 66.043H16.8164L18.6211 67.8477C17.3633 68.1211 16.0371 68.6406 14.6426 69.4062C13.248 70.1719 12.0312 71.293 10.9922 72.7695C10.5 73.4258 10.0898 74.1367 9.76172 74.9023C9.43359 75.668 9.16016 76.4609 8.94141 77.2812C8.55859 77.2812 8.10742 77.3359 7.58789 77.4453C7.06836 77.5547 6.5625 77.7734 6.07031 78.1016C5.41406 78.4844 4.89453 79.0176 4.51172 79.7012C4.12891 80.3848 3.91016 81.1094 3.85547 81.875H1.23047C0.902344 81.875 0.615234 81.998 0.369141 82.2441C0.123047 82.4902 0 82.7773 0 83.1055C0 83.4883 0.123047 83.7891 0.369141 84.0078C0.615234 84.2266 0.902344 84.3359 1.23047 84.3359H82.7695C83.0977 84.3359 83.3848 84.2266 83.6309 84.0078C83.877 83.7891 84 83.4883 84 83.1055C84 82.7773 83.877 82.4902 83.6309 82.2441C83.3848 81.998 83.0977 81.875 82.7695 81.875ZM72.0234 50.0469C72.0234 48.4609 72.584 47.1074 73.7051 45.9863C74.8262 44.8652 76.1523 44.3047 77.6836 44.3047H80.4727V47.0938C80.4727 48.625 79.9121 49.9512 78.791 51.0723C77.6699 52.1934 76.3438 52.7539 74.8125 52.7539H73.7461L76.2891 50.293C76.5078 50.0195 76.6172 49.7188 76.6172 49.3906C76.6172 49.0625 76.5078 48.7891 76.2891 48.5703C76.0156 48.2969 75.7148 48.1602 75.3867 48.1602C75.0586 48.1602 74.7578 48.2969 74.4844 48.5703L72.0234 51.0312V50.0469ZM59.8828 58.4141L55.043 53.5742C54.8242 53.3555 54.5371 53.2461 54.1816 53.2461C53.8262 53.2461 53.5391 53.3555 53.3203 53.5742C53.1016 53.8477 52.9922 54.1484 52.9922 54.4766C52.9922 54.8047 53.1016 55.0781 53.3203 55.2969L58.1602 60.1367H55.5352C53.1836 60.1367 51.1875 59.3164 49.5469 57.6758C47.9062 56.0352 47.0859 54.0391 47.0859 51.6875V47.3398H51.4336C53.7305 47.3398 55.7129 48.1602 57.3809 49.8008C59.0488 51.4414 59.8828 53.4375 59.8828 55.7891V58.4141ZM65.9531 33.5586C65.625 33.5586 65.3379 33.6816 65.0918 33.9277C64.8457 34.1738 64.7227 34.4609 64.7227 34.7891V38.3164L63.9844 37.5781C62.8906 36.4844 62.3438 35.1445 62.3438 33.5586C62.3438 31.9727 62.8906 30.6328 63.9844 29.5391L65.9531 27.5703L67.9219 29.5391C69.0156 30.6328 69.5625 31.9727 69.5625 33.5586C69.5625 35.1445 69.0156 36.4844 67.9219 37.5781L67.1836 38.3164V34.7891C67.1836 34.4609 67.0605 34.1738 66.8145 33.9277C66.5684 33.6816 66.2812 33.5586 65.9531 33.5586ZM27.3984 50.2109C27.3984 48.625 27.959 47.2715 29.0801 46.1504C30.2012 45.0293 31.5547 44.4688 33.1406 44.4688H35.8477V47.2578C35.8477 48.7891 35.3008 50.1152 34.207 51.2363C33.1133 52.3574 31.7734 52.918 30.1875 52.918H29.2031L31.6641 50.457C31.8828 50.1836 31.9922 49.8828 31.9922 49.5547C31.9922 49.2266 31.8828 48.9531 31.6641 48.7344C31.3906 48.4609 31.0898 48.3242 30.7617 48.3242C30.4336 48.3242 30.1602 48.4609 29.9414 48.7344L27.3984 51.1953V50.2109ZM27.3984 28.0625C27.3984 26.4766 27.959 25.123 29.0801 24.002C30.2012 22.8809 31.5547 22.3203 33.1406 22.3203H35.8477V25.1094C35.8477 26.6406 35.3008 27.9668 34.207 29.0879C33.1133 30.209 31.7734 30.7695 30.1875 30.7695H29.2031L31.6641 28.3086C31.8828 28.0352 31.9922 27.7344 31.9922 27.4062C31.9922 27.0781 31.8828 26.8047 31.6641 26.5859C31.3906 26.3125 31.0898 26.1758 30.7617 26.1758C30.4336 26.1758 30.1602 26.3125 29.9414 26.5859L27.3984 29.0469V28.0625ZM16.0781 61.8594L12.2227 58.0039C12.0039 57.7305 11.7168 57.5938 11.3613 57.5938C11.0059 57.5938 10.7188 57.7305 10.5 58.0039C10.2812 58.2227 10.1719 58.5098 10.1719 58.8652C10.1719 59.2207 10.2812 59.5078 10.5 59.7266L14.3555 63.582H12.5508C10.582 63.582 8.88672 62.8848 7.46484 61.4902C6.04297 60.0957 5.33203 58.4141 5.33203 56.4453V52.8359H8.94141C10.9102 52.8359 12.5918 53.5332 13.9863 54.9277C15.3809 56.3223 16.0781 58.0039 16.0781 59.9727V61.8594ZM20.0977 10.5078V14.0352L19.4414 13.2969C18.293 12.2031 17.7188 10.877 17.7188 9.31836C17.7188 7.75977 18.293 6.40625 19.4414 5.25781L21.3281 3.37109L23.2969 5.25781C24.3906 6.40625 24.9375 7.75977 24.9375 9.31836C24.9375 10.877 24.3906 12.2031 23.2969 13.2969L22.5586 14.0352V10.5078C22.5586 10.1797 22.4492 9.89258 22.2305 9.64648C22.0117 9.40039 21.7109 9.27734 21.3281 9.27734C21 9.27734 20.7129 9.40039 20.4668 9.64648C20.2207 9.89258 20.0977 10.1797 20.0977 10.5078ZM36.5039 81.875H21.4922C21.4375 81.875 21.4102 81.875 21.4102 81.875C21.4102 81.875 21.3828 81.875 21.3281 81.875C21.3281 81.875 21.3145 81.875 21.2871 81.875C21.2598 81.875 21.2461 81.875 21.2461 81.875H6.31641C6.37109 81.5469 6.49414 81.2188 6.68555 80.8906C6.87695 80.5625 7.10938 80.3164 7.38281 80.1523C7.65625 79.9336 7.94336 79.8105 8.24414 79.7832C8.54492 79.7559 8.80469 79.7695 9.02344 79.8242C9.57031 79.8789 10.0625 79.7422 10.5 79.4141C10.9375 79.0859 11.2109 78.6758 11.3203 78.1836C11.4297 77.418 11.6348 76.707 11.9355 76.0508C12.2363 75.3945 12.5781 74.793 12.9609 74.2461C14.7109 71.7852 16.8438 70.4316 19.3594 70.1855C21.875 69.9395 23.1602 69.8164 23.2148 69.8164C25.6758 69.9805 27.6582 70.7188 29.1621 72.0312C30.666 73.3438 31.6914 74.3828 32.2383 75.1484C32.5117 75.5312 32.8672 75.791 33.3047 75.9277C33.7422 76.0645 34.1523 76.0508 34.5352 75.8867C34.8633 75.7773 35.2324 75.709 35.6426 75.6816C36.0527 75.6543 36.4766 75.75 36.9141 75.9688C37.3516 76.1875 37.7207 76.4883 38.0215 76.8711C38.3223 77.2539 38.5273 77.6914 38.6367 78.1836C38.0352 78.6211 37.5566 79.168 37.2012 79.8242C36.8457 80.4805 36.6133 81.1641 36.5039 81.875Z" fill="white"/>
</svg>
