<svg width="84" height="85" viewBox="0 0 84 85" fill="none" xmlns="http://www.w3.org/2000/svg">
<path d="M21 79.25H18.6211C16.9805 79.25 15.5449 78.7168 14.3145 77.6504C13.084 76.584 12.3594 75.2578 12.1406 73.6719V73.5898L8.61328 48.8984C8.55859 48.5703 8.4082 48.2969 8.16211 48.0781C7.91602 47.8594 7.62891 47.75 7.30078 47.75C6.97266 47.75 6.67188 47.873 6.39844 48.1191C6.125 48.3652 5.98828 48.6797 5.98828 49.0625C5.98828 49.1172 5.98828 49.1582 5.98828 49.1855C5.98828 49.2129 5.98828 49.2266 5.98828 49.2266L9.51562 74C9.89844 76.2422 10.9375 78.1152 12.6328 79.6191C14.3281 81.123 16.3242 81.875 18.6211 81.875H21C21.3828 81.875 21.6973 81.752 21.9434 81.5059C22.1895 81.2598 22.3125 80.9453 22.3125 80.5625C22.3125 80.1797 22.1895 79.8652 21.9434 79.6191C21.6973 79.373 21.3828 79.25 21 79.25ZM36.75 66.125C36.3672 66.125 36.0527 66.248 35.8066 66.4941C35.5605 66.7402 35.4375 67.0547 35.4375 67.4375V72.6875C35.4375 73.7812 35.8203 74.7109 36.5859 75.4766C37.3516 76.2422 38.2812 76.625 39.375 76.625C40.4688 76.625 41.3984 76.2422 42.1641 75.4766C42.9297 74.7109 43.3125 73.7812 43.3125 72.6875V56.9375C43.3125 55.8438 42.9297 54.9141 42.1641 54.1484C41.3984 53.3828 40.4688 53 39.375 53C38.2812 53 37.3516 53.3828 36.5859 54.1484C35.8203 54.9141 35.4375 55.8438 35.4375 56.9375V62.1875C35.4375 62.5703 35.5605 62.8848 35.8066 63.1309C36.0527 63.377 36.3672 63.5 36.75 63.5C37.1328 63.5 37.4473 63.377 37.6934 63.1309C37.9395 62.8848 38.0625 62.5703 38.0625 62.1875V56.9375C38.0625 56.5547 38.1855 56.2402 38.4316 55.9941C38.6777 55.748 38.9922 55.625 39.375 55.625C39.7578 55.625 40.0723 55.748 40.3184 55.9941C40.5645 56.2402 40.6875 56.5547 40.6875 56.9375V72.6875C40.6875 73.0703 40.5645 73.3848 40.3184 73.6309C40.0723 73.877 39.7578 74 39.375 74C38.9922 74 38.6777 73.877 38.4316 73.6309C38.1855 73.3848 38.0625 73.0703 38.0625 72.6875V67.4375C38.0625 67.0547 37.9395 66.7402 37.6934 66.4941C37.4473 66.248 37.1328 66.125 36.75 66.125ZM18.375 53C17.2812 53 16.3516 53.3828 15.5859 54.1484C14.8203 54.9141 14.4375 55.8438 14.4375 56.9375V72.6875C14.4375 73.7812 14.8203 74.7109 15.5859 75.4766C16.3516 76.2422 17.2812 76.625 18.375 76.625C19.4688 76.625 20.3984 76.2422 21.1641 75.4766C21.9297 74.7109 22.3125 73.7812 22.3125 72.6875V56.9375C22.3125 55.8438 21.9297 54.9141 21.1641 54.1484C20.3984 53.3828 19.4688 53 18.375 53ZM19.6875 72.6875C19.6875 73.0703 19.5645 73.3848 19.3184 73.6309C19.0723 73.877 18.7578 74 18.375 74C17.9922 74 17.6777 73.877 17.4316 73.6309C17.1855 73.3848 17.0625 73.0703 17.0625 72.6875V56.9375C17.0625 56.5547 17.1855 56.2402 17.4316 55.9941C17.6777 55.748 17.9922 55.625 18.375 55.625C18.7578 55.625 19.0723 55.748 19.3184 55.9941C19.5645 56.2402 19.6875 56.5547 19.6875 56.9375V72.6875ZM24.9375 56.9375V72.6875C24.9375 73.7812 25.3203 74.7109 26.0859 75.4766C26.8516 76.2422 27.7812 76.625 28.875 76.625C29.9688 76.625 30.8984 76.2422 31.6641 75.4766C32.4297 74.7109 32.8125 73.7812 32.8125 72.6875V56.9375C32.8125 55.8438 32.4297 54.9141 31.6641 54.1484C30.8984 53.3828 29.9688 53 28.875 53C27.7812 53 26.8516 53.3828 26.0859 54.1484C25.3203 54.9141 24.9375 55.8438 24.9375 56.9375ZM30.1875 56.9375V72.6875C30.1875 73.0703 30.0645 73.3848 29.8184 73.6309C29.5723 73.877 29.2578 74 28.875 74C28.4922 74 28.1777 73.877 27.9316 73.6309C27.6855 73.3848 27.5625 73.0703 27.5625 72.6875V56.9375C27.5625 56.5547 27.6855 56.2402 27.9316 55.9941C28.1777 55.748 28.4922 55.625 28.875 55.625C29.2578 55.625 29.5723 55.748 29.8184 55.9941C30.0645 56.2402 30.1875 56.5547 30.1875 56.9375ZM57.75 50.375C58.1328 50.375 58.4473 50.252 58.6934 50.0059C58.9395 49.7598 59.0625 49.4453 59.0625 49.0625C59.0625 48.6797 58.9395 48.3652 58.6934 48.1191C58.4473 47.873 58.1328 47.75 57.75 47.75H48.5625C48.1797 47.75 47.8652 47.873 47.6191 48.1191C47.373 48.3652 47.25 48.6797 47.25 49.0625C47.25 49.4453 47.373 49.7598 47.6191 50.0059C47.8652 50.252 48.1797 50.375 48.5625 50.375H57.75ZM30.1875 47.75H14.4375C14.0547 47.75 13.7402 47.873 13.4941 48.1191C13.248 48.3652 13.125 48.6797 13.125 49.0625C13.125 49.4453 13.248 49.7598 13.4941 50.0059C13.7402 50.252 14.0547 50.375 14.4375 50.375H30.1875C30.5703 50.375 30.8848 50.252 31.1309 50.0059C31.377 49.7598 31.5 49.4453 31.5 49.0625C31.5 48.6797 31.377 48.3652 31.1309 48.1191C30.8848 47.873 30.5703 47.75 30.1875 47.75ZM73.418 57.0195C74.2383 56.418 74.8945 55.6523 75.3867 54.7227C75.8789 53.793 76.125 52.7812 76.125 51.6875C76.125 51.3047 76.002 50.9902 75.7559 50.7441C75.5098 50.498 75.1953 50.375 74.8125 50.375H72.5977L73.3359 45.125H74.8125C75.9062 45.125 76.8359 44.7422 77.6016 43.9766C78.3672 43.2109 78.75 42.2812 78.75 41.1875C78.75 40.0938 78.3672 39.1641 77.6016 38.3984C76.8359 37.6328 75.9062 37.25 74.8125 37.25H66.6094L67.7578 34.707C68.1953 35.0352 68.6738 35.2949 69.1934 35.4863C69.7129 35.6777 70.2734 35.7734 70.875 35.7734C72.0781 35.7734 73.1445 35.418 74.0742 34.707C75.0039 33.9961 75.6328 33.0664 75.9609 31.918C76.0156 31.6992 76.0566 31.4805 76.084 31.2617C76.1113 31.043 76.125 30.8242 76.125 30.6055C76.125 30.5508 76.125 30.5098 76.125 30.4824C76.125 30.4551 76.125 30.4141 76.125 30.3594C76.8906 29.9219 77.5195 29.293 78.0117 28.4727C78.5039 27.6523 78.75 26.7773 78.75 25.8477C78.75 25.082 78.5996 24.3574 78.2988 23.6738C77.998 22.9902 77.5742 22.4023 77.0273 21.9102C77.1367 21.6914 77.2598 21.4316 77.3965 21.1309C77.5332 20.8301 77.6289 20.5156 77.6836 20.1875H77.7656C77.8203 19.8594 77.875 19.5176 77.9297 19.1621C77.9844 18.8066 78.0117 18.4648 78.0117 18.1367C78.0117 17.043 77.8066 16.0176 77.3965 15.0605C76.9863 14.1035 76.4258 13.2695 75.7148 12.5586C75.6055 12.4492 75.4688 12.3672 75.3047 12.3125C75.1406 12.2578 74.9766 12.2305 74.8125 12.2305C74.4297 12.2305 74.1152 12.3535 73.8691 12.5996C73.623 12.8457 73.5 13.1602 73.5 13.543C73.5 13.707 73.5273 13.8711 73.582 14.0352C73.6367 14.1992 73.7461 14.3359 73.9102 14.4453C74.3477 14.9375 74.7031 15.498 74.9766 16.127C75.25 16.7559 75.3867 17.4258 75.3867 18.1367C75.3867 19.2305 75.0723 20.2285 74.4434 21.1309C73.8145 22.0332 72.9805 22.6484 71.9414 22.9766V23.0586C71.7227 23.1133 71.5312 23.25 71.3672 23.4688C71.2031 23.6875 71.1211 23.9336 71.1211 24.207C71.1211 24.3711 71.1074 24.5352 71.0801 24.6992C71.0527 24.8633 71.0117 25.0273 70.957 25.1914V25.1094C70.7383 25.9844 70.2734 26.6953 69.5625 27.2422C68.8516 27.7891 68.0586 28.0625 67.1836 28.0625C66.2539 28.0625 65.4473 27.7891 64.7637 27.2422C64.0801 26.6953 63.6289 26.0117 63.4102 25.1914C63.4102 25.1914 63.4102 25.1641 63.4102 25.1094C63.3555 25 63.3145 24.8496 63.2871 24.6582C63.2598 24.4668 63.2461 24.2891 63.2461 24.125C63.2461 23.4141 63.4238 22.7578 63.7793 22.1562C64.1348 21.5547 64.5859 21.0625 65.1328 20.6797H65.2148C65.3789 20.5703 65.5293 20.4199 65.666 20.2285C65.8027 20.0371 65.8711 19.8047 65.8711 19.5312C65.8711 19.2031 65.7344 18.9023 65.4609 18.6289C65.1875 18.3555 64.8867 18.2188 64.5586 18.2188C64.3945 18.2188 64.2578 18.2461 64.1484 18.3008C64.0391 18.3555 63.957 18.4102 63.9023 18.4648C62.918 19.0117 62.125 19.791 61.5234 20.8027C60.9219 21.8145 60.6211 22.9219 60.6211 24.125C60.6211 24.1797 60.6211 24.2617 60.6211 24.3711C60.6211 24.4805 60.6211 24.5898 60.6211 24.6992V24.6172C60.5117 24.6719 60.3887 24.6992 60.252 24.6992C60.1152 24.6992 59.9648 24.6992 59.8008 24.6992C59.6367 24.6992 59.4727 24.6992 59.3086 24.6992C59.1445 24.6992 58.9805 24.6719 58.8164 24.6172H58.8984C58.2969 24.4531 57.791 24.1934 57.3809 23.8379C56.9707 23.4824 56.6289 23.0586 56.3555 22.5664C56.3555 22.5117 56.3555 22.4844 56.3555 22.4844C56.2461 22.2109 56.1504 21.9375 56.0684 21.6641C55.9863 21.3906 55.9453 21.0898 55.9453 20.7617C55.9453 20.7617 55.9453 20.7344 55.9453 20.6797C55.9453 20.3516 55.8223 20.0508 55.5762 19.7773C55.3301 19.5039 55.0156 19.3672 54.6328 19.3672C54.3047 19.3672 54.0039 19.4902 53.7305 19.7363C53.457 19.9824 53.3203 20.2969 53.3203 20.6797C53.3203 20.6797 53.3203 20.6934 53.3203 20.7207C53.3203 20.748 53.3203 20.7617 53.3203 20.7617C53.3203 21.0898 53.3477 21.3906 53.4023 21.6641C53.457 21.9375 53.5117 22.2109 53.5664 22.4844C53.3477 22.5391 53.1289 22.5938 52.9102 22.6484C52.6914 22.7031 52.4727 22.7305 52.2539 22.7305C52.0898 22.7305 51.9258 22.7168 51.7617 22.6895C51.5977 22.6621 51.4336 22.6211 51.2695 22.5664C50.832 22.457 50.4492 22.293 50.1211 22.0742C49.793 21.8555 49.4922 21.582 49.2188 21.2539V21.1719C48.9453 20.8438 48.7266 20.4746 48.5625 20.0645C48.3984 19.6543 48.3164 19.2305 48.3164 18.793C48.3164 17.8633 48.6035 17.043 49.1777 16.332C49.752 15.6211 50.4492 15.1562 51.2695 14.9375H51.3516C51.5703 14.8828 51.7754 14.7598 51.9668 14.5684C52.1582 14.377 52.2539 14.1445 52.2539 13.8711L52.3359 13.625C52.3359 13.5703 52.3359 13.5156 52.3359 13.4609C52.3359 13.4062 52.3359 13.3789 52.3359 13.3789C52.6094 12.4492 53.0742 11.6562 53.7305 11C54.3867 10.3438 55.1797 9.90625 56.1094 9.6875C56.1094 9.85156 56.0957 10.0566 56.0684 10.3027C56.041 10.5488 56.0273 10.7812 56.0273 11C56.0273 11.7109 56.123 12.4082 56.3145 13.0918C56.5059 13.7754 56.7656 14.3906 57.0938 14.9375C57.2031 15.1562 57.3535 15.3203 57.5449 15.4297C57.7363 15.5391 57.9414 15.5938 58.1602 15.5938C58.543 15.5938 58.8574 15.4707 59.1035 15.2246C59.3496 14.9785 59.4727 14.6641 59.4727 14.2812C59.4727 14.1719 59.459 14.0625 59.4316 13.9531C59.4043 13.8438 59.3633 13.7344 59.3086 13.625C59.0898 13.2422 58.9258 12.832 58.8164 12.3945C58.707 11.957 58.6523 11.4922 58.6523 11C58.6523 10.6172 58.6934 10.2344 58.7754 9.85156C58.8574 9.46875 58.9805 9.08594 59.1445 8.70312C59.582 7.82812 60.2246 7.11719 61.0723 6.57031C61.9199 6.02344 62.8633 5.75 63.9023 5.75C65.3242 5.75 66.5547 6.25586 67.5938 7.26758C68.6328 8.2793 69.1523 9.52344 69.1523 11C69.1523 11.0547 69.1387 11.123 69.1113 11.2051C69.084 11.2871 69.0703 11.3828 69.0703 11.4922V11.4102C69.0703 11.4648 69.0703 11.4922 69.0703 11.4922C69.0703 11.875 69.207 12.1895 69.4805 12.4355C69.7539 12.6816 70.0547 12.8047 70.3828 12.8047C70.7109 12.8047 70.998 12.6953 71.2441 12.4766C71.4902 12.2578 71.6406 11.9844 71.6953 11.6562C71.6953 11.5469 71.709 11.4375 71.7363 11.3281C71.7637 11.2188 71.7773 11.1094 71.7773 11C71.7773 8.8125 70.998 6.95312 69.4395 5.42188C67.8809 3.89062 66.0352 3.125 63.9023 3.125C62.4805 3.125 61.1816 3.4668 60.0059 4.15039C58.8301 4.83398 57.8867 5.72266 57.1758 6.81641C55.4258 6.87109 53.8809 7.44531 52.541 8.53906C51.2012 9.63281 50.3125 11 49.875 12.6406V12.7227C48.6172 13.2148 47.6191 13.9941 46.8809 15.0605C46.1426 16.127 45.7734 17.3438 45.7734 18.7109C45.7734 19.3125 45.8418 19.873 45.9785 20.3926C46.1152 20.9121 46.293 21.418 46.5117 21.9102V21.8281C46.4023 21.9922 46.2793 22.1699 46.1426 22.3613C46.0059 22.5527 45.9102 22.7305 45.8555 22.8945L45.7734 22.9766L44.707 20.5977C44.2695 19.668 43.668 18.8613 42.9023 18.1777C42.1367 17.4941 41.2617 17.0156 40.2773 16.7422L40.1953 16.6602C40.0859 16.6055 39.9355 16.5645 39.7441 16.5371C39.5527 16.5098 39.375 16.4961 39.2109 16.4961L39.1289 16.4141L38.7188 9.44141C38.7188 9.11328 38.582 8.82617 38.3086 8.58008C38.0352 8.33398 37.7344 8.21094 37.4062 8.21094C37.0234 8.21094 36.709 8.33398 36.4629 8.58008C36.2168 8.82617 36.0938 9.14062 36.0938 9.52344C36.0938 9.52344 36.0938 9.53711 36.0938 9.56445C36.0938 9.5918 36.0938 9.60547 36.0938 9.60547L36.5039 16.4961C36.2852 16.5508 36.0664 16.6191 35.8477 16.7012C35.6289 16.7832 35.4102 16.8516 35.1914 16.9062H35.2734L33.4688 10.6719C33.4141 10.3984 33.2637 10.166 33.0176 9.97461C32.7715 9.7832 32.5117 9.6875 32.2383 9.6875C31.8555 9.6875 31.541 9.81055 31.2949 10.0566C31.0488 10.3027 30.9258 10.6172 30.9258 11C30.9258 11.0547 30.9258 11.1094 30.9258 11.1641C30.9258 11.2188 30.9258 11.3008 30.9258 11.4102V11.3281L31.0078 11.4922L30.8438 11.4102C30.7344 11.3008 30.5977 11.2051 30.4336 11.123C30.2695 11.041 30.1055 11 29.9414 11C29.7773 11 29.6133 11.0273 29.4492 11.082C29.2852 11.1367 29.1484 11.2461 29.0391 11.4102V11.3281L25.1016 15.1016C24.9922 15.2656 24.8965 15.416 24.8145 15.5527C24.7324 15.6895 24.6914 15.8672 24.6914 16.0859C24.6914 16.3047 24.7461 16.5098 24.8555 16.7012C24.9648 16.8926 25.1289 17.043 25.3477 17.1523L31.1719 21.0078C31.1172 21.1719 31.0625 21.3359 31.0078 21.5C30.9531 21.6641 30.8984 21.8555 30.8438 22.0742C30.7891 22.3477 30.748 22.6211 30.7207 22.8945C30.6934 23.168 30.6797 23.4414 30.6797 23.7148C30.6797 23.8242 30.6797 23.9336 30.6797 24.043C30.6797 24.1523 30.6797 24.2617 30.6797 24.3711C29.6953 24.5352 28.7656 24.8223 27.8906 25.2324C27.0156 25.6426 26.1953 26.1484 25.4297 26.75L24.5273 25.8477C24.418 25.7383 24.2812 25.6426 24.1172 25.5605C23.9531 25.4785 23.7891 25.4375 23.625 25.4375C23.2969 25.4375 22.9961 25.5742 22.7227 25.8477C22.4492 26.1211 22.3125 26.4219 22.3125 26.75C22.3125 26.9141 22.3535 27.0781 22.4355 27.2422C22.5176 27.4062 22.6133 27.543 22.7227 27.6523L22.8047 27.7344C21.7109 28.0078 20.7676 28.5 19.9746 29.2109C19.1816 29.9219 18.5938 30.7969 18.2109 31.8359H18.1289L18.0469 32.2461L14.8477 31.1797C14.793 31.125 14.7383 31.0977 14.6836 31.0977C14.6289 31.0977 14.5469 31.0977 14.4375 31.0977C14.0547 31.0977 13.7402 31.2207 13.4941 31.4668C13.248 31.7129 13.125 32.0273 13.125 32.4102C13.125 32.6836 13.207 32.9297 13.3711 33.1484C13.5352 33.3672 13.7539 33.5312 14.0273 33.6406L40.4414 42.7461C40.6602 42.8555 40.8516 43.0195 41.0156 43.2383C41.1797 43.457 41.2617 43.7305 41.2617 44.0586C41.2617 44.3867 41.1387 44.6875 40.8926 44.9609C40.6465 45.2344 40.332 45.3711 39.9492 45.3711C39.8945 45.3711 39.8262 45.3574 39.7441 45.3301C39.6621 45.3027 39.5938 45.2891 39.5391 45.2891L4.83984 33.2305C4.56641 33.1211 4.34766 32.957 4.18359 32.7383C4.01953 32.5195 3.9375 32.2734 3.9375 32C3.9375 31.7266 4.00586 31.4941 4.14258 31.3027C4.2793 31.1113 4.45703 30.9609 4.67578 30.8516C4.78516 30.7969 4.88086 30.7559 4.96289 30.7285C5.04492 30.7012 5.14062 30.6875 5.25 30.6875C5.30469 30.6875 5.37305 30.6875 5.45508 30.6875C5.53711 30.6875 5.60547 30.7148 5.66016 30.7695L9.02344 31.918C9.13281 31.9727 9.22852 32 9.31055 32C9.39258 32 9.46094 32 9.51562 32C9.89844 32 10.2129 31.877 10.459 31.6309C10.7051 31.3848 10.8281 31.0703 10.8281 30.6875C10.8281 30.4141 10.7461 30.168 10.582 29.9492C10.418 29.7305 10.1992 29.5664 9.92578 29.457L6.5625 28.3086C6.34375 28.1992 6.125 28.1309 5.90625 28.1035C5.6875 28.0762 5.44141 28.0625 5.16797 28.0625C4.12891 28.0625 3.21289 28.4453 2.41992 29.2109C1.62695 29.9766 1.23047 30.9062 1.23047 32C1.23047 32.875 1.49023 33.6406 2.00977 34.2969C2.5293 34.9531 3.17188 35.418 3.9375 35.6914L8.36719 37.25H3.9375C2.84375 37.25 1.91406 37.6328 1.14844 38.3984C0.382813 39.1641 0 40.0938 0 41.1875C0 42.2812 0.382813 43.2109 1.14844 43.9766C1.91406 44.7422 2.84375 45.125 3.9375 45.125H31.0898L38.7188 47.75C38.8828 47.8047 39.0742 47.8594 39.293 47.9141C39.5117 47.9688 39.7578 47.9961 40.0312 47.9961C41.125 47.9961 42.0547 47.6133 42.8203 46.8477C43.5859 46.082 43.9688 45.1523 43.9688 44.0586C43.9688 43.1836 43.709 42.4043 43.1895 41.7207C42.6699 41.0371 42.0273 40.5586 41.2617 40.2852L40.0312 39.875H74.8125C75.1953 39.875 75.5098 39.998 75.7559 40.2441C76.002 40.4902 76.125 40.8047 76.125 41.1875C76.125 41.5703 76.002 41.8848 75.7559 42.1309C75.5098 42.377 75.1953 42.5 74.8125 42.5H47.8242C47.4961 42.5 47.1953 42.623 46.9219 42.8691C46.6484 43.1152 46.5117 43.4297 46.5117 43.8125C46.5117 44.1953 46.6484 44.5098 46.9219 44.7559C47.1953 45.002 47.4961 45.125 47.8242 45.125H70.7109L69.8906 50.7852C69.5078 50.9492 69.1523 51.1406 68.8242 51.3594C68.4961 51.5781 68.1953 51.7969 67.9219 52.0156V51.8516C67.9219 51.7422 67.9219 51.6602 67.9219 51.6055C67.9219 51.5508 67.9219 51.4688 67.9219 51.3594C67.9219 50.9219 67.8398 50.498 67.6758 50.0879C67.5117 49.6777 67.293 49.3086 67.0195 48.9805C66.6914 48.5977 66.2949 48.3105 65.8301 48.1191C65.3652 47.9277 64.8594 47.832 64.3125 47.832C63.7656 47.832 63.2598 47.9277 62.7949 48.1191C62.3301 48.3105 61.9336 48.5977 61.6055 48.9805C61.332 49.3086 61.1133 49.6777 60.9492 50.0879C60.7852 50.498 60.7031 50.9219 60.7031 51.3594C60.7031 51.4688 60.7031 51.5645 60.7031 51.6465C60.7031 51.7285 60.7031 51.7969 60.7031 51.8516L61.1953 55.707C61.0312 55.6523 60.8809 55.625 60.7441 55.625C60.6074 55.625 60.4844 55.625 60.375 55.625C59.1172 55.625 57.9277 55.8301 56.8066 56.2402C55.6855 56.6504 54.6875 57.2109 53.8125 57.9219V56.9375C53.8125 55.8438 53.4297 54.9141 52.6641 54.1484C51.8984 53.3828 50.9688 53 49.875 53C48.7812 53 47.8516 53.3828 47.0859 54.1484C46.3203 54.9141 45.9375 55.8438 45.9375 56.9375V72.6875C45.9375 73.7812 46.3203 74.7109 47.0859 75.4766C47.8516 76.2422 48.7812 76.625 49.875 76.625C50.3672 76.625 50.8457 76.5293 51.3105 76.3379C51.7754 76.1465 52.1992 75.8867 52.582 75.5586C52.9102 76.2695 53.293 76.9258 53.7305 77.5273C54.168 78.1289 54.6328 78.7031 55.125 79.25H26.25C25.8672 79.25 25.5527 79.373 25.3066 79.6191C25.0605 79.8652 24.9375 80.1797 24.9375 80.5625C24.9375 80.9453 25.0605 81.2598 25.3066 81.5059C25.5527 81.752 25.8672 81.875 26.25 81.875H60.1289C60.1289 81.875 60.1562 81.875 60.2109 81.875C60.2656 81.875 60.3066 81.875 60.334 81.875C60.3613 81.875 60.375 81.875 60.375 81.875C61.0859 81.875 61.7832 81.8066 62.4668 81.6699C63.1504 81.5332 63.793 81.3281 64.3945 81.0547L64.3125 81.1367C64.9141 81.3555 65.543 81.5332 66.1992 81.6699C66.8555 81.8066 67.5391 81.875 68.25 81.875C69.4531 81.875 70.6152 81.4922 71.7363 80.7266C72.8574 79.9609 73.9102 78.8672 74.8945 77.4453C75.0039 77.3359 75.0723 77.2129 75.0996 77.0762C75.127 76.9395 75.1406 76.8164 75.1406 76.707C75.1406 76.3242 75.0176 76.0098 74.7715 75.7637C74.5254 75.5176 74.2109 75.3945 73.8281 75.3945C73.6094 75.3945 73.4043 75.4355 73.2129 75.5176C73.0215 75.5996 72.8711 75.75 72.7617 75.9688C72.0508 77.0078 71.2988 77.8145 70.5059 78.3887C69.7129 78.9629 68.9609 79.25 68.25 79.25C67.6484 79.25 67.0605 79.1816 66.4863 79.0449C65.9121 78.9082 65.3516 78.7031 64.8047 78.4297L64.8867 78.5117C64.7773 78.457 64.6816 78.416 64.5996 78.3887C64.5176 78.3613 64.4219 78.3477 64.3125 78.3477C64.2031 78.3477 64.1074 78.3613 64.0254 78.3887C63.9434 78.416 63.8477 78.457 63.7383 78.5117C63.2461 78.7305 62.7129 78.9082 62.1387 79.0449C61.5645 79.1816 60.9766 79.25 60.375 79.25C60.375 79.25 60.3613 79.25 60.334 79.25C60.3066 79.25 60.293 79.25 60.293 79.25C58.3242 79.1953 56.5332 77.5957 54.9199 74.4512C53.3066 71.3066 52.5 68.5312 52.5 66.125C52.5 63.9375 53.2656 62.0781 54.7969 60.5469C56.3281 59.0156 58.1875 58.25 60.375 58.25C60.5938 58.25 60.7988 58.2637 60.9902 58.291C61.1816 58.3184 61.3867 58.332 61.6055 58.332H61.5234V58.4141C61.6328 59.125 61.9473 59.7129 62.4668 60.1777C62.9863 60.6426 63.6016 60.875 64.3125 60.875C65.0234 60.875 65.6387 60.6426 66.1582 60.1777C66.6777 59.7129 66.9922 59.125 67.1016 58.4141V58.332C67.2656 58.332 67.4434 58.3184 67.6348 58.291C67.8262 58.2637 68.0312 58.25 68.25 58.25C70.4375 58.25 72.2969 59.0156 73.8281 60.5469C75.3594 62.0781 76.125 63.9375 76.125 66.125C76.0703 67.1094 75.9473 68.0664 75.7559 68.9961C75.5645 69.9258 75.3047 70.8008 74.9766 71.6211V71.5391C74.9766 71.5938 74.9629 71.6621 74.9355 71.7441C74.9082 71.8262 74.8945 71.9219 74.8945 72.0312C74.8945 72.4141 75.0176 72.7285 75.2637 72.9746C75.5098 73.2207 75.8242 73.3438 76.207 73.3438C76.4805 73.3438 76.7402 73.2617 76.9863 73.0977C77.2324 72.9336 77.3828 72.7148 77.4375 72.4414C77.8203 71.5117 78.1211 70.5137 78.3398 69.4473C78.5586 68.3809 78.6953 67.2734 78.75 66.125C78.75 64.1562 78.2578 62.3652 77.2734 60.752C76.2891 59.1387 75.0039 57.8945 73.418 57.0195ZM3.9375 42.5C3.55469 42.5 3.24023 42.377 2.99414 42.1309C2.74805 41.8848 2.625 41.5703 2.625 41.1875C2.625 40.8047 2.74805 40.4902 2.99414 40.2441C3.24023 39.998 3.55469 39.875 3.9375 39.875H15.9961L23.543 42.5H3.9375ZM73.5 25.8477C73.5 25.7383 73.5137 25.6289 73.541 25.5195C73.5684 25.4102 73.6094 25.3008 73.6641 25.1914V25.1094C73.9922 24.9453 74.293 24.7676 74.5664 24.5762C74.8398 24.3848 75.1133 24.1797 75.3867 23.9609C75.6055 24.1797 75.7832 24.4531 75.9199 24.7812C76.0566 25.1094 76.125 25.4648 76.125 25.8477C76.125 26.3945 75.9473 26.9004 75.5918 27.3652C75.2363 27.8301 74.8125 28.1445 74.3203 28.3086H74.2383C73.9648 28.418 73.7461 28.582 73.582 28.8008C73.418 29.0195 73.3359 29.2656 73.3359 29.5391C73.3359 29.5938 73.3359 29.6484 73.3359 29.7031C73.3359 29.7578 73.3633 29.8125 73.418 29.8672C73.418 29.9766 73.4316 30.0859 73.459 30.1953C73.4863 30.3047 73.5 30.4414 73.5 30.6055C73.5 30.7148 73.4863 30.8242 73.459 30.9336C73.4316 31.043 73.418 31.1523 73.418 31.2617V31.1797C73.2539 31.7812 72.9395 32.2598 72.4746 32.6152C72.0098 32.9707 71.4766 33.1484 70.875 33.1484C70.7656 33.1484 70.6426 33.1484 70.5059 33.1484C70.3691 33.1484 70.2461 33.1211 70.1367 33.0664H70.2188C69.9453 33.0117 69.6855 32.9023 69.4395 32.7383C69.1934 32.5742 68.9883 32.3828 68.8242 32.1641L69.7266 30.1133C69.8906 30.0586 70.0273 30.0039 70.1367 29.9492C70.2461 29.8945 70.3555 29.8398 70.4648 29.7852C71.1758 29.3477 71.8047 28.7871 72.3516 28.1035C72.8984 27.4199 73.2812 26.668 73.5 25.8477ZM66.6914 30.6055L63.7383 37.25H55.4531L55.7812 36.1016C55.7812 36.1016 55.7949 36.0605 55.8223 35.9785C55.8496 35.8965 55.8633 35.8281 55.8633 35.7734C55.8633 35.7734 55.8496 35.7461 55.8223 35.6914C55.7949 35.6367 55.7812 35.582 55.7812 35.5273L53.7305 25.1914C53.8945 25.1367 54.0723 25.082 54.2637 25.0273C54.4551 24.9727 54.6328 24.8906 54.7969 24.7812L54.7148 24.8633C55.0977 25.3008 55.5078 25.6836 55.9453 26.0117C56.3828 26.3398 56.8477 26.6133 57.3398 26.832H57.4219L58.9805 34.7891C59.0352 35.0625 59.1719 35.2949 59.3906 35.4863C59.6094 35.6777 59.8555 35.7734 60.1289 35.7734C60.1836 35.7734 60.2109 35.7734 60.2109 35.7734C60.2109 35.7734 60.2383 35.7734 60.293 35.7734C60.5664 35.7734 60.8125 35.7051 61.0312 35.5684C61.25 35.4316 61.3867 35.2539 61.4414 35.0352H61.5234L63.9844 29.7852C64.3672 30.0586 64.7773 30.2637 65.2148 30.4004C65.6523 30.5371 66.1172 30.6055 66.6094 30.6055H66.6914ZM61.3594 27.1602C61.4688 27.3242 61.5645 27.4746 61.6465 27.6113C61.7285 27.748 61.8242 27.8711 61.9336 27.9805L60.7852 30.3594L60.2109 27.3242C60.4297 27.3242 60.6348 27.3105 60.8262 27.2832C61.0176 27.2559 61.2227 27.2148 61.4414 27.1602H61.3594ZM51.0234 25.1914L51.5156 27.5703C51.3516 27.625 51.1875 27.666 51.0234 27.6934C50.8594 27.7207 50.6953 27.7344 50.5312 27.7344C50.4219 27.7344 50.3125 27.7207 50.2031 27.6934C50.0938 27.666 49.9844 27.6523 49.875 27.6523C49.3281 27.4883 48.877 27.1738 48.5215 26.709C48.166 26.2441 47.9883 25.7109 47.9883 25.1094C47.9883 25 47.9883 24.877 47.9883 24.7402C47.9883 24.6035 48.0156 24.4805 48.0703 24.3711V24.4531C48.0703 24.3438 48.0977 24.248 48.1523 24.166C48.207 24.084 48.2344 24.0156 48.2344 23.9609C48.5625 24.2344 48.918 24.4668 49.3008 24.6582C49.6836 24.8496 50.0938 25 50.5312 25.1094H50.6133C50.668 25.1094 50.7363 25.123 50.8184 25.1504C50.9004 25.1777 50.9688 25.1914 51.0234 25.1914ZM49.2188 30.1953C49.4375 30.25 49.6562 30.291 49.875 30.3184C50.0938 30.3457 50.3398 30.3594 50.6133 30.3594C50.832 30.3594 51.0781 30.332 51.3516 30.2773C51.625 30.2227 51.8711 30.168 52.0898 30.1133H52.0078L53.1562 35.7734L52.7461 37.25H52.5L49.2188 30.1953ZM49.6289 37.25H47.0039C47.0586 37.25 47.1133 37.2363 47.168 37.209C47.2227 37.1816 47.2773 37.168 47.332 37.168L49.1367 36.1016L49.6289 37.25ZM40.6055 19.7773L39.2109 20.5977C39.0469 20.707 38.8965 20.8574 38.7598 21.0488C38.623 21.2402 38.5547 21.4727 38.5547 21.7461C38.5547 22.0742 38.6914 22.375 38.9648 22.6484C39.2383 22.9219 39.5391 23.0586 39.8672 23.0586C40.0312 23.0586 40.168 23.0312 40.2773 22.9766C40.3867 22.9219 40.4961 22.8672 40.6055 22.8125H40.5234L42.3281 21.8281L44.0508 25.3555L42.4922 26.2578C42.3281 26.3672 42.1777 26.5176 42.041 26.709C41.9043 26.9004 41.8359 27.1328 41.8359 27.4062C41.8359 27.7344 41.9727 28.0352 42.2461 28.3086C42.5195 28.582 42.8203 28.7188 43.1484 28.7188C43.3125 28.7188 43.4492 28.7051 43.5586 28.6777C43.668 28.6504 43.7773 28.6094 43.8867 28.5547H43.8047L45.1992 27.7344L47.9883 33.7227L46.0195 34.8711C45.8008 34.9805 45.6367 35.1309 45.5273 35.3223C45.418 35.5137 45.3633 35.7461 45.3633 36.0195C45.3633 36.293 45.4453 36.5391 45.6094 36.7578C45.7734 36.9766 45.9922 37.1406 46.2656 37.25H41.6719L40.1953 35.1992L43.5586 33.2305C43.7227 33.1211 43.873 32.9707 44.0098 32.7793C44.1465 32.5879 44.2148 32.3555 44.2148 32.082C44.2148 31.7539 44.0781 31.4531 43.8047 31.1797C43.5312 30.9062 43.2305 30.7695 42.9023 30.7695C42.793 30.7695 42.6699 30.7832 42.5332 30.8105C42.3965 30.8379 42.3008 30.9062 42.2461 31.0156V30.9336L38.7188 32.9844L36.5039 29.7852L39.1289 28.2266C39.293 28.1172 39.4434 27.9668 39.5801 27.7754C39.7168 27.584 39.7852 27.3516 39.7852 27.0781C39.7852 26.75 39.6484 26.4492 39.375 26.1758C39.1016 25.9023 38.8008 25.7656 38.4727 25.7656C38.3633 25.7656 38.2539 25.7793 38.1445 25.8066C38.0352 25.834 37.9258 25.875 37.8164 25.9297L34.9453 27.5703L34.125 26.4219C33.8516 26.0391 33.6465 25.6152 33.5098 25.1504C33.373 24.6855 33.3047 24.207 33.3047 23.7148C33.3047 22.4023 33.7695 21.2812 34.6992 20.3516C35.6289 19.4219 36.7227 18.957 37.9805 18.957C38.2539 18.957 38.5137 18.9844 38.7598 19.0391C39.0059 19.0938 39.2383 19.1484 39.457 19.2031C39.6758 19.2578 39.8809 19.3398 40.0723 19.4492C40.2637 19.5586 40.4414 19.668 40.6055 19.7773ZM28.1367 15.9219L29.8594 14.1992L32.4844 16.9062L32.9766 18.3828C32.9219 18.4375 32.8535 18.5059 32.7715 18.5879C32.6895 18.6699 32.6211 18.7383 32.5664 18.793L28.1367 15.9219ZM20.5898 32.7383C20.918 32.0273 21.4102 31.4258 22.0664 30.9336C22.7227 30.4414 23.4609 30.1953 24.2812 30.1953C24.3359 30.1953 24.3633 30.1953 24.3633 30.1953L24.0352 31.2617C23.8164 31.7539 23.502 32.2051 23.0918 32.6152C22.6816 33.0254 22.2031 33.3125 21.6562 33.4766L20.5078 33.1484L20.5898 32.7383ZM24.8555 34.625C25.1836 34.2969 25.4844 33.9277 25.7578 33.5176C26.0312 33.1074 26.25 32.6562 26.4141 32.1641H26.4961L26.6602 31.5898C26.7695 31.6992 26.8926 31.7812 27.0293 31.8359C27.166 31.8906 27.3164 31.918 27.4805 31.918C27.8633 31.918 28.1777 31.7949 28.4238 31.5488C28.6699 31.3027 28.793 30.9883 28.793 30.6055C28.793 30.4414 28.7656 30.291 28.7109 30.1543C28.6562 30.0176 28.5742 29.8945 28.4648 29.7852L27.3164 28.6367C27.918 28.1992 28.5605 27.8301 29.2441 27.5293C29.9277 27.2285 30.625 27.0234 31.3359 26.9141H31.418C31.5273 27.0781 31.623 27.2422 31.7051 27.4062C31.7871 27.5703 31.8828 27.7344 31.9922 27.8984L38.4727 37.25H32.4844L24.8555 34.625ZM51.1875 72.6875C51.1875 73.0703 51.0645 73.3848 50.8184 73.6309C50.5723 73.877 50.2578 74 49.875 74C49.4922 74 49.1777 73.877 48.9316 73.6309C48.6855 73.3848 48.5625 73.0703 48.5625 72.6875V56.9375C48.5625 56.5547 48.6855 56.2402 48.9316 55.9941C49.1777 55.748 49.4922 55.625 49.875 55.625C50.2578 55.625 50.5723 55.748 50.8184 55.9941C51.0645 56.2402 51.1875 56.5547 51.1875 56.9375V61.0391C50.75 61.8047 50.4219 62.6113 50.2031 63.459C49.9844 64.3066 49.875 65.1953 49.875 66.125C49.9297 67.3281 50.0801 68.4902 50.3262 69.6113C50.5723 70.7324 50.8867 71.8125 51.2695 72.8516V72.6875H51.1875ZM72.1875 53H73.2539C72.9805 53.7656 72.5156 54.3945 71.8594 54.8867C71.2031 55.3789 70.4375 55.625 69.5625 55.625H68.4961C68.7695 54.8594 69.2344 54.2305 69.8906 53.7383C70.5469 53.2461 71.3125 53 72.1875 53ZM64.1484 58.0859L63.3281 51.5234C63.3281 51.4688 63.3281 51.4414 63.3281 51.4414C63.3281 51.4414 63.3281 51.4141 63.3281 51.3594C63.3281 51.0859 63.4238 50.8535 63.6152 50.6621C63.8066 50.4707 64.0391 50.375 64.3125 50.375C64.5859 50.375 64.8184 50.4707 65.0098 50.6621C65.2012 50.8535 65.2969 51.0859 65.2969 51.3594C65.2969 51.4141 65.2969 51.4414 65.2969 51.4414C65.2969 51.4414 65.2969 51.4688 65.2969 51.5234L64.4766 58.0859C64.4766 58.1406 64.4629 58.1816 64.4355 58.209C64.4082 58.2363 64.3672 58.25 64.3125 58.25C64.2578 58.25 64.2168 58.2363 64.1895 58.209C64.1621 58.1816 64.1484 58.1406 64.1484 58.0859ZM70.0547 61.1211C70 61.0664 69.918 61.0254 69.8086 60.998C69.6992 60.9707 69.5898 60.957 69.4805 60.957C69.0977 60.957 68.7832 61.0938 68.5371 61.3672C68.291 61.6406 68.168 61.9414 68.168 62.2695C68.168 62.543 68.2363 62.7754 68.373 62.9668C68.5098 63.1582 68.6602 63.3086 68.8242 63.418C69.2617 63.6367 69.6172 63.9102 69.8906 64.2383C70.1641 64.5664 70.3828 64.9492 70.5469 65.3867C70.6562 65.6602 70.8203 65.8789 71.0391 66.043C71.2578 66.207 71.5039 66.2891 71.7773 66.2891C72.1602 66.2891 72.4746 66.166 72.7207 65.9199C72.9668 65.6738 73.0898 65.3594 73.0898 64.9766C73.0898 64.8672 73.0898 64.7715 73.0898 64.6895C73.0898 64.6074 73.0625 64.5391 73.0078 64.4844C72.7344 63.7734 72.3516 63.1309 71.8594 62.5566C71.3672 61.9824 70.793 61.5039 70.1367 61.1211H70.0547Z" fill="white"/>
</svg>
