<svg width="84" height="85" viewBox="0 0 84 85" fill="none" xmlns="http://www.w3.org/2000/svg">
<path d="M14.9297 56.0352C13.0703 56.0352 11.4707 56.7051 10.1309 58.0449C8.79102 59.3848 8.12109 60.9844 8.12109 62.8438C8.12109 64.7031 8.79102 66.2891 10.1309 67.6016C11.4707 68.9141 13.0703 69.5703 14.9297 69.5703C16.7891 69.5703 18.375 68.9141 19.6875 67.6016C21 66.2891 21.6562 64.7031 21.6562 62.8438C21.6562 60.9844 21 59.3848 19.6875 58.0449C18.375 56.7051 16.7891 56.0352 14.9297 56.0352ZM14.9297 66.8633C13.7812 66.8633 12.8105 66.4668 12.0176 65.6738C11.2246 64.8809 10.8281 63.9375 10.8281 62.8438C10.8281 61.6953 11.2246 60.7246 12.0176 59.9316C12.8105 59.1387 13.7812 58.7422 14.9297 58.7422C16.0234 58.7422 16.9668 59.1387 17.7598 59.9316C18.5527 60.7246 18.9492 61.6953 18.9492 62.8438C18.9492 63.9375 18.5527 64.8809 17.7598 65.6738C16.9668 66.4668 16.0234 66.8633 14.9297 66.8633ZM72.7617 39.793L76.4531 42.2539C76.5625 42.3633 76.6855 42.4316 76.8223 42.459C76.959 42.4863 77.082 42.5 77.1914 42.5H82.6055C82.9883 42.5 83.3164 42.3633 83.5898 42.0898C83.8633 41.8164 84 41.4883 84 41.1055V35.6914C84 35.3633 83.8633 35.0625 83.5898 34.7891C83.3164 34.5156 82.9883 34.3789 82.6055 34.3789H80.3086L76.6172 31.918C76.5078 31.8086 76.3848 31.7402 76.248 31.7129C76.1113 31.6855 75.9883 31.6719 75.8789 31.6719H70.4648V15.4297H71.7773C72.1602 15.4297 72.4883 15.293 72.7617 15.0195C73.0352 14.7461 73.1719 14.418 73.1719 14.0352V8.62109C73.1719 8.23828 73.0352 7.92383 72.7617 7.67773C72.4883 7.43164 72.1602 7.30859 71.7773 7.30859H42C41.8359 7.30859 41.6719 7.33594 41.5078 7.39062C41.3438 7.44531 41.1797 7.52734 41.0156 7.63672L35.6016 13.0508C35.4375 13.2695 35.3281 13.5156 35.2734 13.7891C35.2188 14.0625 35.2461 14.3086 35.3555 14.5273C35.4648 14.8008 35.6289 15.0195 35.8477 15.1836C36.0664 15.3477 36.3125 15.4297 36.5859 15.4297H67.7578V22.1562H63.6562C63.2734 22.1562 62.959 22.293 62.7129 22.5664C62.4668 22.8398 62.3438 23.168 62.3438 23.5508V30.2773C62.3438 30.6602 62.207 30.9883 61.9336 31.2617C61.6602 31.5352 61.332 31.6719 60.9492 31.6719H52.8281C52.4453 31.6719 52.1309 31.8086 51.8848 32.082C51.6387 32.3555 51.5156 32.6562 51.5156 32.9844V38.3984C51.5156 38.7812 51.6387 39.1094 51.8848 39.3828C52.1309 39.6562 52.4453 39.793 52.8281 39.793H55.4531L43.8867 48.1602C43.7227 48.3242 43.5996 48.502 43.5176 48.6934C43.4355 48.8848 43.3945 49.0898 43.3945 49.3086V53.3281H35.1914V50.6211H36.5859C36.9688 50.6211 37.2832 50.4844 37.5293 50.2109C37.7754 49.9375 37.8984 49.6367 37.8984 49.3086V45.207H42C42.1641 45.207 42.3281 45.1797 42.4922 45.125C42.6562 45.0703 42.8203 44.9609 42.9844 44.7969L45.6914 42.0898L43.7227 40.2031L41.4258 42.5H37.8984V38.9727L50.1211 26.832L51.8438 28.5547L53.8125 26.668L48.3984 21.2539L46.4297 23.1406L48.2344 24.8633L37.8984 35.1992V32.9844C37.8984 32.6562 37.7754 32.3555 37.5293 32.082C37.2832 31.8086 36.9688 31.6719 36.5859 31.6719H32.4844V30.2773C32.4844 29.9492 32.3613 29.6484 32.1152 29.375C31.8691 29.1016 31.5547 28.9648 31.1719 28.9648H29.7773V22.1562C29.7773 21.0625 29.3809 20.1191 28.5879 19.3262C27.7949 18.5332 26.8516 18.1367 25.7578 18.1367H21.6562V20.8438H25.7578C26.1406 20.8438 26.4551 20.9668 26.7012 21.2129C26.9473 21.459 27.0703 21.7734 27.0703 22.1562V28.9648H25.7578C25.375 28.9648 25.0469 29.1016 24.7734 29.375C24.5 29.6484 24.3633 29.9492 24.3633 30.2773V34.3789H14.9297C13.7812 34.3789 12.8105 34.7754 12.0176 35.5684C11.2246 36.3613 10.8281 37.3047 10.8281 38.3984V49.8828C10.5 49.9922 10.1582 50.1152 9.80273 50.252C9.44727 50.3887 9.10547 50.5391 8.77734 50.7031L7.71094 49.6367C7.4375 49.418 7.12305 49.3086 6.76758 49.3086C6.41211 49.3086 6.09766 49.418 5.82422 49.6367L1.72266 53.7383C1.50391 54.0117 1.39453 54.3262 1.39453 54.6816C1.39453 55.0371 1.50391 55.3516 1.72266 55.625L2.78906 56.6914C2.625 57.0195 2.48828 57.3613 2.37891 57.7168C2.26953 58.0723 2.13281 58.4141 1.96875 58.7422H1.39453C1.01172 58.7422 0.683594 58.8789 0.410156 59.1523C0.136719 59.4258 0 59.7539 0 60.1367V65.5508C0 65.9336 0.136719 66.248 0.410156 66.4941C0.683594 66.7402 1.01172 66.8633 1.39453 66.8633H1.96875C2.07812 67.2461 2.20117 67.6016 2.33789 67.9297C2.47461 68.2578 2.65234 68.5859 2.87109 68.9141L1.72266 69.9805C1.50391 70.2539 1.39453 70.582 1.39453 70.9648C1.39453 71.3477 1.50391 71.6758 1.72266 71.9492L5.82422 75.9688C6.09766 76.2422 6.41211 76.3789 6.76758 76.3789C7.12305 76.3789 7.4375 76.2422 7.71094 75.9688L8.77734 74.9023C9.10547 75.0664 9.44727 75.2168 9.80273 75.3535C10.1582 75.4902 10.5 75.6133 10.8281 75.7227V76.3789C10.8281 76.7617 10.9648 77.0762 11.2383 77.3223C11.5117 77.5684 11.8398 77.6914 12.2227 77.6914H17.6367C18.0195 77.6914 18.334 77.5684 18.5801 77.3223C18.8262 77.0762 18.9492 76.7617 18.9492 76.3789V75.7227C19.332 75.6133 19.6875 75.4902 20.0156 75.3535C20.3438 75.2168 20.6719 75.0664 21 74.9023L22.0664 75.9688C22.3398 76.2422 22.668 76.3789 23.0508 76.3789C23.4336 76.3789 23.7344 76.2422 23.9531 75.9688L28.0547 71.9492C28.3281 71.6758 28.4648 71.3477 28.4648 70.9648C28.4648 70.582 28.3281 70.2539 28.0547 69.9805L26.9883 68.9141C27.1523 68.5859 27.3027 68.2578 27.4395 67.9297C27.5762 67.6016 27.6992 67.2461 27.8086 66.8633H28.4648C28.8477 66.8633 29.1621 66.7402 29.4082 66.4941C29.6543 66.248 29.7773 65.9336 29.7773 65.5508V64.1562H32.4844V65.5508C32.4844 65.9336 32.6211 66.248 32.8945 66.4941C33.168 66.7402 33.4961 66.8633 33.8789 66.8633H44.707C45.0898 66.8633 45.418 66.7402 45.6914 66.4941C45.9648 66.248 46.1016 65.9336 46.1016 65.5508V64.1562H50.6953C50.8594 64.8672 51.0781 65.5645 51.3516 66.248C51.625 66.9316 51.9531 67.5742 52.3359 68.1758L51.8438 68.668C51.7344 68.7773 51.6523 68.9141 51.5977 69.0781C51.543 69.2422 51.5156 69.4062 51.5156 69.5703C51.5156 69.7891 51.543 69.9805 51.5977 70.1445C51.6523 70.3086 51.7344 70.4453 51.8438 70.5547L55.9453 74.6562C56.2188 74.875 56.5469 74.9844 56.9297 74.9844C57.3125 74.9844 57.6133 74.875 57.832 74.6562L58.3242 74.1641C58.9258 74.5469 59.5684 74.875 60.252 75.1484C60.9355 75.4219 61.6328 75.668 62.3438 75.8867V76.3789C62.3438 76.7617 62.4668 77.0762 62.7129 77.3223C62.959 77.5684 63.2734 77.6914 63.6562 77.6914H69.0703C69.4531 77.6914 69.7812 77.5684 70.0547 77.3223C70.3281 77.0762 70.4648 76.7617 70.4648 76.3789V75.8867C71.1758 75.668 71.873 75.4219 72.5566 75.1484C73.2402 74.875 73.8828 74.5469 74.4844 74.1641L74.8945 74.6562C75.0586 74.7656 75.2227 74.8477 75.3867 74.9023C75.5508 74.957 75.7148 74.9844 75.8789 74.9844C76.043 74.9844 76.207 74.957 76.3711 74.9023C76.5352 74.8477 76.6992 74.7656 76.8633 74.6562L80.8828 70.5547C81.1562 70.2812 81.293 69.9531 81.293 69.5703C81.293 69.1875 81.1562 68.8867 80.8828 68.668L80.4727 68.2578C80.8555 67.6016 81.1836 66.9316 81.457 66.248C81.7305 65.5645 81.9492 64.8672 82.1133 64.1562H82.6055C82.9883 64.1562 83.3164 64.0332 83.5898 63.7871C83.8633 63.541 84 63.2266 84 62.8438V57.4297C84 57.0469 83.8633 56.7188 83.5898 56.4453C83.3164 56.1719 82.9883 56.0352 82.6055 56.0352H82.1133C81.9492 55.3242 81.7305 54.6406 81.457 53.9844C81.1836 53.3281 80.8555 52.6719 80.4727 52.0156L80.8828 51.6055C80.9922 51.4414 81.0879 51.2773 81.1699 51.1133C81.252 50.9492 81.293 50.7852 81.293 50.6211C81.293 50.457 81.252 50.293 81.1699 50.1289C81.0879 49.9648 80.9922 49.8008 80.8828 49.6367L76.8633 45.6172C76.5898 45.3438 76.2617 45.207 75.8789 45.207C75.4961 45.207 75.168 45.3438 74.8945 45.6172L74.4844 46.0273C73.8281 45.6445 73.1719 45.3164 72.5156 45.043C71.8594 44.7695 71.1758 44.5508 70.4648 44.3867V43.8945C70.4648 43.5117 70.3281 43.1836 70.0547 42.9102C69.7812 42.6367 69.4531 42.5 69.0703 42.5H67.7578V39.793H72.7617ZM42.5742 10.0156H70.4648V12.7227H39.8672L42.5742 10.0156ZM79.1602 36.8398C79.2695 36.9492 79.3926 37.0176 79.5293 37.0449C79.666 37.0723 79.7891 37.0859 79.8984 37.0859H81.293V39.793H77.6016L73.9102 37.332C73.8008 37.2227 73.6777 37.1543 73.541 37.127C73.4043 37.0996 73.2812 37.0859 73.1719 37.0859H66.9375L69.6445 34.3789H75.4688L79.1602 36.8398ZM54.2227 34.3789H60.9492C62.0977 34.3789 63.0684 33.9824 63.8613 33.1895C64.6543 32.3965 65.0508 31.4258 65.0508 30.2773V24.8633H67.7578V32.4922L63.082 37.0859H54.2227V34.3789ZM43.3945 56.0352V58.7422H35.1914V56.0352H43.3945ZM32.4844 38.3984V34.3789H35.1914V47.9141H29.7773V39.793H31.1719C31.5547 39.793 31.8691 39.6562 32.1152 39.3828C32.3613 39.1094 32.4844 38.7812 32.4844 38.3984ZM27.0703 31.6719H29.7773V37.0859H27.0703V31.6719ZM14.9297 37.0859H18.9492V42.5H13.5352V38.3984C13.5352 38.0703 13.6719 37.7695 13.9453 37.4961C14.2188 37.2227 14.5469 37.0859 14.9297 37.0859ZM27.0703 64.1562H26.7422C26.4141 64.1562 26.127 64.252 25.8809 64.4434C25.6348 64.6348 25.4844 64.8945 25.4297 65.2227C25.3203 65.8242 25.1562 66.3984 24.9375 66.9453C24.7188 67.4922 24.4453 67.9844 24.1172 68.4219C23.9531 68.6953 23.8984 68.9961 23.9531 69.3242C24.0078 69.6523 24.1445 69.9258 24.3633 70.1445L25.1836 70.9648L23.0508 73.0977L22.2305 72.2773C22.0117 72.0586 21.7383 71.9219 21.4102 71.8672C21.082 71.8125 20.7812 71.8672 20.5078 72.0312C20.0156 72.3594 19.4961 72.6328 18.9492 72.8516C18.4023 73.0703 17.8555 73.2617 17.3086 73.4258C16.9805 73.4805 16.7207 73.6309 16.5293 73.877C16.3379 74.123 16.2422 74.4102 16.2422 74.7383V74.9844H13.5352V74.7383C13.5352 74.4102 13.4395 74.123 13.248 73.877C13.0566 73.6309 12.7969 73.4531 12.4688 73.3438C11.9219 73.2344 11.3887 73.0703 10.8691 72.8516C10.3496 72.6328 9.81641 72.3594 9.26953 72.0312C8.99609 71.8672 8.70898 71.8125 8.4082 71.8672C8.10742 71.9219 7.84766 72.0586 7.62891 72.2773L6.80859 73.0977L4.59375 70.9648L5.49609 70.0625C5.71484 69.8438 5.83789 69.584 5.86523 69.2832C5.89258 68.9824 5.82422 68.6953 5.66016 68.4219C5.33203 67.9297 5.05859 67.4102 4.83984 66.8633C4.62109 66.3164 4.45703 65.7695 4.34766 65.2227C4.29297 64.8945 4.14258 64.6348 3.89648 64.4434C3.65039 64.252 3.36328 64.1562 3.03516 64.1562H2.70703V61.4492H3.03516C3.36328 61.4492 3.65039 61.3535 3.89648 61.1621C4.14258 60.9707 4.29297 60.7109 4.34766 60.3828C4.51172 59.8359 4.70312 59.2891 4.92188 58.7422C5.14062 58.1953 5.38672 57.6758 5.66016 57.1836C5.82422 56.9102 5.89258 56.623 5.86523 56.3223C5.83789 56.0215 5.71484 55.7617 5.49609 55.543L4.59375 54.7227L6.80859 52.5078L7.62891 53.4102C7.84766 53.6289 8.10742 53.752 8.4082 53.7793C8.70898 53.8066 8.99609 53.7383 9.26953 53.5742C9.76172 53.2461 10.2812 52.9727 10.8281 52.7539C11.375 52.5352 11.9219 52.3711 12.4688 52.2617C12.7969 52.207 13.0566 52.0566 13.248 51.8105C13.4395 51.5645 13.5352 51.2773 13.5352 50.9492V50.6211H16.2422V50.9492C16.2422 51.2773 16.3379 51.5645 16.5293 51.8105C16.7207 52.0566 16.9805 52.207 17.3086 52.2617C17.8555 52.3711 18.4023 52.5352 18.9492 52.7539C19.4961 52.9727 20.0156 53.2461 20.5078 53.5742C20.7812 53.7383 21.0684 53.8066 21.3691 53.7793C21.6699 53.752 21.9297 53.6289 22.1484 53.4102L23.0508 52.5078L25.1836 54.7227L24.3633 55.543C24.1445 55.7617 24.0078 56.0215 23.9531 56.3223C23.8984 56.623 23.9531 56.9102 24.1172 57.1836C24.4453 57.7305 24.7188 58.2637 24.9375 58.7832C25.1562 59.3027 25.3203 59.8359 25.4297 60.3828C25.5391 60.7109 25.7168 60.9707 25.9629 61.1621C26.209 61.3535 26.4961 61.4492 26.8242 61.4492H27.0703V64.1562ZM29.7773 61.4492V60.1367C29.7773 59.7539 29.6543 59.4258 29.4082 59.1523C29.1621 58.8789 28.8477 58.7422 28.4648 58.7422H27.8086C27.6992 58.4141 27.5762 58.0859 27.4395 57.7578C27.3027 57.4297 27.1523 57.1016 26.9883 56.7734L28.0547 55.625C28.3281 55.3516 28.4648 55.0371 28.4648 54.6816C28.4648 54.3262 28.3281 54.0117 28.0547 53.7383L23.9531 49.6367C23.7344 49.418 23.4336 49.3086 23.0508 49.3086C22.668 49.3086 22.3398 49.418 22.0664 49.6367L21 50.7852C20.6719 50.5664 20.3301 50.3887 19.9746 50.252C19.6191 50.1152 19.2773 49.9922 18.9492 49.8828V49.3086C18.9492 48.9258 18.8262 48.5977 18.5801 48.3242C18.334 48.0508 18.0195 47.9141 17.6367 47.9141H13.5352V45.207H20.3438C20.7266 45.207 21.041 45.0703 21.2871 44.7969C21.5332 44.5234 21.6562 44.2227 21.6562 43.8945V37.0859H24.3633V38.3984C24.3633 38.7812 24.5 39.1094 24.7734 39.3828C25.0469 39.6562 25.375 39.793 25.7578 39.793H27.0703V49.3086C27.0703 49.6367 27.207 49.9375 27.4805 50.2109C27.7539 50.4844 28.082 50.6211 28.4648 50.6211H32.4844V61.4492H29.7773ZM35.1914 64.1562V61.4492H43.3945V64.1562H35.1914ZM68.8242 46.7656C69.7539 46.9297 70.6426 47.1895 71.4902 47.5449C72.3379 47.9004 73.1445 48.3516 73.9102 48.8984C74.1836 49.0625 74.4844 49.1309 74.8125 49.1035C75.1406 49.0762 75.4141 48.9531 75.6328 48.7344L75.8789 48.4883L78.0117 50.6211L77.7656 50.8672C77.5469 51.0859 77.4238 51.3594 77.3965 51.6875C77.3691 52.0156 77.4375 52.3164 77.6016 52.5898C78.1484 53.3555 78.5996 54.1621 78.9551 55.0098C79.3105 55.8574 79.5703 56.7461 79.7344 57.6758C79.7891 58.0039 79.9395 58.2637 80.1855 58.4551C80.4316 58.6465 80.7188 58.7422 81.0469 58.7422H81.293V61.4492H81.0469C80.7188 61.4492 80.4316 61.5586 80.1855 61.7773C79.9395 61.9961 79.7891 62.2695 79.7344 62.5977C79.5156 63.5273 79.2422 64.416 78.9141 65.2637C78.5859 66.1113 78.1484 66.918 77.6016 67.6836C77.4375 67.957 77.3691 68.2441 77.3965 68.5449C77.4238 68.8457 77.5469 69.1328 77.7656 69.4062L78.0117 69.5703L75.8789 71.7852L75.6328 71.5391C75.4141 71.3203 75.1406 71.1973 74.8125 71.1699C74.4844 71.1426 74.1836 71.2109 73.9102 71.375C73.1445 71.8672 72.3379 72.291 71.4902 72.6465C70.6426 73.002 69.7539 73.2617 68.8242 73.4258C68.4961 73.4805 68.2363 73.6309 68.0449 73.877C67.8535 74.123 67.7578 74.4102 67.7578 74.7383V74.9844H65.0508V74.7383C65.0508 74.4102 64.9414 74.123 64.7227 73.877C64.5039 73.6309 64.2305 73.4805 63.9023 73.4258C63.0273 73.2617 62.166 73.002 61.3184 72.6465C60.4707 72.291 59.6367 71.8672 58.8164 71.375C58.543 71.1562 58.2559 71.0742 57.9551 71.1289C57.6543 71.1836 57.3945 71.3203 57.1758 71.5391L56.9297 71.7852L54.7969 69.5703L54.9609 69.3242C55.2344 69.1055 55.3848 68.8457 55.4121 68.5449C55.4395 68.2441 55.3438 67.957 55.125 67.6836C54.6328 66.8633 54.209 66.0293 53.8535 65.1816C53.498 64.334 53.2383 63.4727 53.0742 62.5977C53.0195 62.2695 52.8691 61.9961 52.623 61.7773C52.377 61.5586 52.0898 61.4492 51.7617 61.4492H51.5156V58.7422H51.7617C52.0898 58.7422 52.377 58.6465 52.623 58.4551C52.8691 58.2637 53.0195 58.0039 53.0742 57.6758C53.2383 56.7461 53.498 55.8574 53.8535 55.0098C54.209 54.1621 54.6328 53.3555 55.125 52.5898C55.2891 52.3164 55.3574 52.0156 55.3301 51.6875C55.3027 51.3594 55.1797 51.0859 54.9609 50.8672L54.7148 50.6211L56.9297 48.4883L57.0938 48.7344C57.3672 48.9531 57.6543 49.0762 57.9551 49.1035C58.2559 49.1309 58.543 49.0625 58.8164 48.8984C59.582 48.3516 60.3887 47.9141 61.2363 47.5859C62.084 47.2578 62.9727 46.9844 63.9023 46.7656C64.2305 46.7109 64.5039 46.5605 64.7227 46.3145C64.9414 46.0684 65.0508 45.7812 65.0508 45.4531V45.207H67.7578V45.4531C67.7578 45.7812 67.8535 46.0684 68.0449 46.3145C68.2363 46.5605 68.4961 46.7109 68.8242 46.7656ZM65.0508 42.5H63.6562C63.2734 42.5 62.959 42.6367 62.7129 42.9102C62.4668 43.1836 62.3438 43.5117 62.3438 43.8945V44.3867C61.6328 44.5508 60.9355 44.7695 60.252 45.043C59.5684 45.3164 58.8984 45.6445 58.2422 46.0273L57.832 45.6172C57.7227 45.5078 57.5859 45.4121 57.4219 45.3301C57.2578 45.248 57.0938 45.207 56.9297 45.207C56.7109 45.207 56.5195 45.248 56.3555 45.3301C56.1914 45.4121 56.0547 45.5078 55.9453 45.6172L51.8438 49.6367C51.625 49.9102 51.5156 50.2383 51.5156 50.6211C51.5156 51.0039 51.625 51.332 51.8438 51.6055L52.3359 52.0156C51.9531 52.6172 51.625 53.2598 51.3516 53.9434C51.0781 54.627 50.8594 55.3242 50.6953 56.0352H50.1211C49.7383 56.0352 49.4238 56.1719 49.1777 56.4453C48.9316 56.7188 48.8086 57.0469 48.8086 57.4297V61.4492H46.1016V49.9648L60.0469 39.793H65.0508V42.5ZM56.9297 60.1367C56.9297 62.7617 57.8457 64.9902 59.6777 66.8223C61.5098 68.6543 63.7383 69.5703 66.3633 69.5703C68.9883 69.5703 71.2305 68.6543 73.0898 66.8223C74.9492 64.9902 75.8789 62.7617 75.8789 60.1367C75.8789 57.5117 74.9492 55.2695 73.0898 53.4102C71.2305 51.5508 68.9883 50.6211 66.3633 50.6211C63.7383 50.6211 61.5098 51.5508 59.6777 53.4102C57.8457 55.2695 56.9297 57.5117 56.9297 60.1367ZM73.1719 60.1367C73.1719 61.9961 72.502 63.582 71.1621 64.8945C69.8223 66.207 68.2227 66.8633 66.3633 66.8633C64.5039 66.8633 62.918 66.207 61.6055 64.8945C60.293 63.582 59.6367 61.9961 59.6367 60.1367C59.6367 58.2773 60.293 56.6777 61.6055 55.3379C62.918 53.998 64.5039 53.3281 66.3633 53.3281C68.2227 53.3281 69.8223 53.998 71.1621 55.3379C72.502 56.6777 73.1719 58.2773 73.1719 60.1367Z" fill="white"/>
</svg>
